<?xml version="1.0" encoding="UTF-8"?>
<svg version="1.1" xmlns="http://www.w3.org/2000/svg" width="152" height="64">
<path d="M0 0 C9.24 0 18.48 0 28 0 C28 8.58 28 17.16 28 26 C26.02 26 24.04 26 22 26 C20.35 24.35 18.7 22.7 17 21 C16.67 26.61 16.34 32.22 16 38 C9.83836226 38 9.09163783 37.97473389 5 34 C3.79727181 31.59454362 3.89928528 30.05003047 3.9375 27.375 C3.94652344 26.55773437 3.95554687 25.74046875 3.96484375 24.8984375 C3.97644531 24.27195312 3.98804688 23.64546875 4 23 C3.41992188 23.05800781 2.83984375 23.11601562 2.2421875 23.17578125 C-1.95168385 23.41800154 -5.0658047 23.49671495 -8.5 20.875 C-11.27301325 17.68603476 -11.50249764 16.08178072 -12 12 C-10.78098999 12.00785522 -10.78098999 12.00785522 -9.53735352 12.01586914 C-5.87907678 12.03656994 -2.22081233 12.04963803 1.4375 12.0625 C2.71689453 12.07087891 3.99628906 12.07925781 5.31445312 12.08789062 C6.52939453 12.09111328 7.74433594 12.09433594 8.99609375 12.09765625 C10.12200928 12.10289307 11.2479248 12.10812988 12.40795898 12.11352539 C14.92970871 12.29545448 14.92970871 12.29545448 16 11 C15.41992188 11.05800781 14.83984375 11.11601562 14.2421875 11.17578125 C10.04831615 11.41800154 6.9341953 11.49671495 3.5 8.875 C1 6 1 6 0 0 Z " fill="#1C78F2" transform="translate(24,6)"/>
<path d="M0 0 C0.56847656 0.32355469 1.13695312 0.64710937 1.72265625 0.98046875 C2.05265625 0.32046875 2.38265625 -0.33953125 2.72265625 -1.01953125 C4.70265625 -1.01953125 6.68265625 -1.01953125 8.72265625 -1.01953125 C8.72265625 9.54046875 8.72265625 20.10046875 8.72265625 30.98046875 C6.74265625 30.98046875 4.76265625 30.98046875 2.72265625 30.98046875 C2.39265625 30.32046875 2.06265625 29.66046875 1.72265625 28.98046875 C0.73265625 29.49609375 -0.25734375 30.01171875 -1.27734375 30.54296875 C-5.46180844 32.3133192 -8.96452802 32.46639686 -13.27734375 30.98046875 C-17.02715884 28.04583085 -18.80110717 25.44802682 -20.27734375 20.98046875 C-21.13812106 13.63383448 -20.91828838 7.87572274 -16.27734375 1.98046875 C-11.83672758 -1.95264843 -5.36952907 -2.40385435 0 0 Z M-11.65234375 6.41796875 C-14.01005032 10.13589065 -14.34751193 13.62224502 -14.27734375 17.98046875 C-13.53610446 21.08019667 -12.7027413 22.50780481 -10.58984375 24.85546875 C-7.10571633 26.55044966 -4.94882206 26.02946255 -1.27734375 24.98046875 C1.3762409 22.80316853 2.52184428 21.24010747 3.06640625 17.82421875 C3.25580483 13.08925417 2.80572731 9.77501775 -0.27734375 5.98046875 C-4.1270857 4.05559778 -7.99680961 4.20540861 -11.65234375 6.41796875 Z " fill="#243757" transform="translate(143.27734375,22.01953125)"/>
<path d="M0 0 C9.24 0 18.48 0 28 0 C28 8.58 28 17.16 28 26 C22 26 22 26 19.1875 23.625 C15.49370544 19.19244653 15.90936342 16.61946823 16 11 C15.41992188 11.05800781 14.83984375 11.11601562 14.2421875 11.17578125 C10.04831615 11.41800154 6.9341953 11.49671495 3.5 8.875 C1 6 1 6 0 0 Z " fill="#2584FF" transform="translate(24,6)"/>
<path d="M0 0 C8.91 0 17.82 0 27 0 C27 8.58 27 17.16 27 26 C20 25 20 25 17.625 22.5625 C14.9862255 18.40135559 14.90831632 15.95091865 15 11 C14.40832031 11.04640625 13.81664062 11.0928125 13.20703125 11.140625 C9.18104871 11.3245198 6.63302173 11.32969882 3 9.4375 C1 7 1 7 0 0 Z " fill="#1C77F1" transform="translate(0,30)"/>
<path d="M0 0 C2.31 0 4.62 0 7 0 C7.07436755 4.6081187 7.12870394 9.21588514 7.16479492 13.82446289 C7.17984622 15.39093107 7.20029207 16.95735736 7.22631836 18.52368164 C7.26286433 20.78021606 7.27976261 23.03619153 7.29296875 25.29296875 C7.30845261 25.98899704 7.32393646 26.68502533 7.33988953 27.40214539 C7.34139948 31.80223746 6.64069554 34.47516824 4 38 C1.67687619 40.27854361 0.49030366 40.9417461 -2.76171875 41.328125 C-3.72722656 41.30234375 -4.69273438 41.2765625 -5.6875 41.25 C-6.66074219 41.23453125 -7.63398437 41.2190625 -8.63671875 41.203125 C-11 41 -11 41 -12 40 C-12.04080783 38.00041636 -12.04254356 35.99954746 -12 34 C-11.37351562 34.02320313 -10.74703125 34.04640625 -10.1015625 34.0703125 C-9.28429687 34.08835938 -8.46703125 34.10640625 -7.625 34.125 C-6.81289062 34.14820313 -6.00078125 34.17140625 -5.1640625 34.1953125 C-2.78657757 34.21370051 -2.78657757 34.21370051 -1 32 C-0.75498505 29.56823603 -0.62675079 27.24135116 -0.5859375 24.8046875 C-0.56657135 24.09724396 -0.5472052 23.38980042 -0.5272522 22.66091919 C-0.46742348 20.39906915 -0.42105899 18.1371683 -0.375 15.875 C-0.33682314 14.3424256 -0.29777158 12.80987272 -0.2578125 11.27734375 C-0.16171961 7.51840376 -0.07770151 3.75936332 0 0 Z " fill="#243857" transform="translate(77,12)"/>
<path d="M0 0 C1.98 0 3.96 0 6 0 C6.33 0.99 6.66 1.98 7 3 C7.515625 2.505 8.03125 2.01 8.5625 1.5 C11.80680017 -0.49649241 14.26217334 -0.21564385 18 0 C18 1.98 18 3.96 18 6 C17.37351562 6.07476563 16.74703125 6.14953125 16.1015625 6.2265625 C15.28429687 6.35804687 14.46703125 6.48953125 13.625 6.625 C12.81289062 6.74101562 12.00078125 6.85703125 11.1640625 6.9765625 C8.75730043 7.84230514 8.75730043 7.84230514 7.75 10.5 C6.82632385 14.81048868 6.54328256 18.97861809 6.375 23.375 C6.33632812 24.20644531 6.29765625 25.03789063 6.2578125 25.89453125 C6.16425754 27.92935156 6.08107287 29.96464416 6 32 C4.02 32 2.04 32 0 32 C0 21.44 0 10.88 0 0 Z " fill="#243757" transform="translate(104,21)"/>
<path d="M0 0 C1.98 0 3.96 0 6 0 C6 10.56 6 21.12 6 32 C4.02 32 2.04 32 0 32 C0 21.44 0 10.88 0 0 Z " fill="#253758" transform="translate(91,21)"/>
<path d="M0 0 C3 0.125 3 0.125 4 1.125 C4.1875 3.5625 4.1875 3.5625 4 6.125 C2 8.125 2 8.125 -0.5625 8.3125 C-3 8.125 -3 8.125 -4 7.125 C-4.125 4.125 -4.125 4.125 -4 1.125 C-3 0.125 -3 0.125 0 0 Z " fill="#243756" transform="translate(94,9.875)"/>
</svg>
