<?xml version="1.0" encoding="UTF-8"?>
<svg version="1.1" xmlns="http://www.w3.org/2000/svg" width="1024" height="576">
<path d="M0 0 C2.82593188 0.01606888 5.6504299 0.00007903 8.47631836 -0.01904297 C22.03024947 -0.03394946 34.78598221 1.02787525 47.39624023 6.39111328 C48.5731543 6.84744141 49.75006836 7.30376953 50.96264648 7.77392578 C52.29480636 8.29182422 53.62683616 8.81005734 54.95874023 9.32861328 C55.58458008 9.56942627 56.21041992 9.81023926 56.85522461 10.05834961 C65.77520992 13.5885909 73.49399979 19.01972552 81.39624023 24.39111328 C82.16452148 24.90544922 82.93280273 25.41978516 83.72436523 25.94970703 C85.32010622 27.04272474 86.86574755 28.20845985 88.39624023 29.39111328 C88.39624023 30.05111328 88.39624023 30.71111328 88.39624023 31.39111328 C88.95311523 31.63861328 89.50999023 31.88611328 90.08374023 32.14111328 C93.42083623 33.94494896 96.66466689 35.73152561 98.23999023 39.30517578 C98.39624023 41.39111328 98.39624023 41.39111328 97.10327148 43.17236328 C96.47807617 43.73955078 95.85288086 44.30673828 95.20874023 44.89111328 C94.56163086 45.49052734 93.91452148 46.08994141 93.24780273 46.70751953 C92.63678711 47.26310547 92.02577148 47.81869141 91.39624023 48.39111328 C90.25155273 49.59767578 90.25155273 49.59767578 89.08374023 50.82861328 C87.39624023 52.39111328 87.39624023 52.39111328 85.39624023 52.39111328 C85.39624023 53.05111328 85.39624023 53.71111328 85.39624023 54.39111328 C84.73624023 54.39111328 84.07624023 54.39111328 83.39624023 54.39111328 C83.39624023 55.05111328 83.39624023 55.71111328 83.39624023 56.39111328 C79.56269984 55.0731247 77.13079794 53.49409615 74.20874023 50.70361328 C69.5549424 46.44276858 64.66128312 42.85733497 59.39624023 39.39111328 C58.66276367 38.88837891 57.92928711 38.38564453 57.17358398 37.86767578 C35.40599321 23.75421213 7.27438341 19.41720152 -18.01611328 24.57543945 C-24.69687396 26.18566607 -31.04585283 28.55375241 -37.28344727 31.43798828 C-39.60375977 32.39111328 -39.60375977 32.39111328 -42.60375977 32.39111328 C-42.60375977 33.05111328 -42.60375977 33.71111328 -42.60375977 34.39111328 C-44.58032227 35.72314453 -44.58032227 35.72314453 -47.22875977 37.20361328 C-50.41303325 39.03930635 -53.33375545 40.84752742 -56.10375977 43.26611328 C-58.60375977 45.39111328 -58.60375977 45.39111328 -60.60375977 45.39111328 C-60.60375977 46.05111328 -60.60375977 46.71111328 -60.60375977 47.39111328 C-61.97875977 49.01611328 -61.97875977 49.01611328 -63.60375977 50.39111328 C-64.26375977 50.39111328 -64.92375977 50.39111328 -65.60375977 50.39111328 C-65.60375977 51.05111328 -65.60375977 51.71111328 -65.60375977 52.39111328 C-66.26375977 52.39111328 -66.92375977 52.39111328 -67.60375977 52.39111328 C-67.87188477 52.94798828 -68.14000977 53.50486328 -68.41625977 54.07861328 C-69.71275472 56.60336662 -71.02852299 59.02825813 -72.60375977 61.39111328 C-73.26375977 61.39111328 -73.92375977 61.39111328 -74.60375977 61.39111328 C-74.60375977 62.38111328 -74.60375977 63.37111328 -74.60375977 64.39111328 C-75.26375977 64.39111328 -75.92375977 64.39111328 -76.60375977 64.39111328 C-76.72106445 64.94798828 -76.83836914 65.50486328 -76.95922852 66.07861328 C-77.68677027 68.68894492 -78.74236601 70.94883278 -79.91625977 73.39111328 C-88.80617841 92.76855914 -90.59354105 114.531399 -83.90844727 134.97705078 C-81.13900992 142.22402157 -77.73126217 149.2410613 -73.38500977 155.67626953 C-71.60375977 158.39111328 -71.60375977 158.39111328 -71.60375977 160.39111328 C-70.94375977 160.39111328 -70.28375977 160.39111328 -69.60375977 160.39111328 C-68.94375977 162.04111328 -68.28375977 163.69111328 -67.60375977 165.39111328 C-66.94375977 165.39111328 -66.28375977 165.39111328 -65.60375977 165.39111328 C-65.60375977 166.05111328 -65.60375977 166.71111328 -65.60375977 167.39111328 C-64.94375977 167.39111328 -64.28375977 167.39111328 -63.60375977 167.39111328 C-61.97875977 168.76611328 -61.97875977 168.76611328 -60.60375977 170.39111328 C-60.60375977 171.05111328 -60.60375977 171.71111328 -60.60375977 172.39111328 C-59.94375977 172.39111328 -59.28375977 172.39111328 -58.60375977 172.39111328 C-58.60375977 173.05111328 -58.60375977 173.71111328 -58.60375977 174.39111328 C-58.0765332 174.63345703 -57.54930664 174.87580078 -57.00610352 175.12548828 C-54.53907188 176.42519275 -52.25136626 177.91372675 -49.93505859 179.46289062 C-39.55508457 186.37714247 -28.88122781 191.7799898 -16.60375977 194.39111328 C-15.1999707 194.69855469 -15.1999707 194.69855469 -13.76782227 195.01220703 C0.1208761 197.60071765 15.63473693 197.71504562 29.39624023 194.39111328 C30.19288086 194.21966797 30.98952148 194.04822266 31.81030273 193.87158203 C38.18217751 192.26304687 43.69747367 189.27499483 49.39550781 186.08398438 C54.21370265 183.39111328 54.21370265 183.39111328 56.39624023 183.39111328 C56.39624023 182.73111328 56.39624023 182.07111328 56.39624023 181.39111328 C58.87124023 180.40111328 58.87124023 180.40111328 61.39624023 179.39111328 C61.39624023 178.73111328 61.39624023 178.07111328 61.39624023 177.39111328 C63.77124023 174.76611328 63.77124023 174.76611328 66.39624023 172.39111328 C67.05624023 172.39111328 67.71624023 172.39111328 68.39624023 172.39111328 C68.39624023 171.73111328 68.39624023 171.07111328 68.39624023 170.39111328 C69.05624023 170.39111328 69.71624023 170.39111328 70.39624023 170.39111328 C70.65663086 169.84712891 70.91702148 169.30314453 71.18530273 168.74267578 C72.59527218 166.00460609 74.17854683 163.40205564 75.77124023 160.76611328 C80.96979029 151.86048907 83.34751393 144.63474481 85.39624023 134.39111328 C63.94624023 134.39111328 42.49624023 134.39111328 20.39624023 134.39111328 C20.39624023 127.13111328 20.39624023 119.87111328 20.39624023 112.39111328 C50.42624023 112.39111328 80.45624023 112.39111328 111.39624023 112.39111328 C111.39624023 121.42154774 111.01364808 128.72787253 109.39624023 137.39111328 C109.18999023 138.52677734 108.98374023 139.66244141 108.77124023 140.83251953 C104.60199977 162.03405486 95.51805505 178.21897629 80.39624023 193.39111328 C79.83807617 193.99310547 79.27991211 194.59509766 78.70483398 195.21533203 C77.39624023 196.39111328 77.39624023 196.39111328 75.39624023 196.39111328 C75.39624023 197.05111328 75.39624023 197.71111328 75.39624023 198.39111328 C73.71655273 199.68017578 73.71655273 199.68017578 71.52124023 201.01611328 C70.80194336 201.46212891 70.08264648 201.90814453 69.34155273 202.36767578 C67.39624023 203.39111328 67.39624023 203.39111328 65.39624023 203.39111328 C65.39624023 204.05111328 65.39624023 204.71111328 65.39624023 205.39111328 C55.07273585 211.15036733 44.90652773 214.78236632 33.39624023 217.39111328 C31.75848633 217.76236328 31.75848633 217.76236328 30.08764648 218.14111328 C0.40971733 223.47647133 -31.30412043 218.86804443 -57.60375977 204.39111328 C-59.05395508 203.60800781 -59.05395508 203.60800781 -60.53344727 202.80908203 C-68.45143432 198.1687187 -81.5920833 189.42614268 -84.60375977 180.39111328 C-85.26375977 180.39111328 -85.92375977 180.39111328 -86.60375977 180.39111328 C-86.70688477 179.75173828 -86.81000977 179.11236328 -86.91625977 178.45361328 C-87.14313477 177.77298828 -87.37000977 177.09236328 -87.60375977 176.39111328 C-88.59375977 176.06111328 -89.58375977 175.73111328 -90.60375977 175.39111328 C-92.11585139 173.26608968 -93.46849359 171.19011667 -94.79125977 168.95361328 C-95.15928711 168.35484375 -95.52731445 167.75607422 -95.90649414 167.13916016 C-98.60375977 162.67040653 -98.60375977 162.67040653 -98.60375977 160.39111328 C-99.26375977 160.39111328 -99.92375977 160.39111328 -100.60375977 160.39111328 C-114.32093295 129.95131886 -116.22737254 99.17519329 -104.53588867 67.63989258 C-101.71802149 60.31251402 -98.06931571 53.84498246 -93.60375977 47.39111328 C-92.83179287 46.16265822 -92.06073551 44.93363027 -91.29125977 43.70361328 C-90.73438477 42.94048828 -90.17750977 42.17736328 -89.60375977 41.39111328 C-88.94375977 41.39111328 -88.28375977 41.39111328 -87.60375977 41.39111328 C-87.29438477 40.77236328 -86.98500977 40.15361328 -86.66625977 39.51611328 C-85.97875977 38.14111328 -85.29125977 36.76611328 -84.60375977 35.39111328 C-83.94375977 35.39111328 -83.28375977 35.39111328 -82.60375977 35.39111328 C-82.27375977 34.40111328 -81.94375977 33.41111328 -81.60375977 32.39111328 C-80.94375977 32.39111328 -80.28375977 32.39111328 -79.60375977 32.39111328 C-78.94375977 31.07111328 -78.28375977 29.75111328 -77.60375977 28.39111328 C-76.94375977 28.39111328 -76.28375977 28.39111328 -75.60375977 28.39111328 C-75.60375977 27.73111328 -75.60375977 27.07111328 -75.60375977 26.39111328 C-54.72091011 7.62414707 -27.45108821 -0.18533583 0 0 Z " fill="#FDBE00" transform="translate(855.603759765625,175.60888671875)"/>
<path d="M0 0 C2.31 0 4.62 0 7 0 C7 0.66 7 1.32 7 2 C7.556875 2.185625 8.11375 2.37125 8.6875 2.5625 C11.61580417 4.38279719 12.98725758 6.5855761 14.8515625 9.44140625 C15.93246934 11.15572515 15.93246934 11.15572515 18 12 C18 12.66 18 13.32 18 14 C18.66 14 19.32 14 20 14 C21.65625 15.828125 21.65625 15.828125 23.5 18.25 C24.1084375 19.03890625 24.716875 19.8278125 25.34375 20.640625 C27 23 27 23 28.03125 25.234375 C28.93509238 27.35592174 28.93509238 27.35592174 32 28 C33.9375 30.1796875 33.9375 30.1796875 36 32.875 C38.7111282 36.43076498 38.7111282 36.43076498 41.75 39.6953125 C43 41 43 41 43 43 C43.99 43.33 44.98 43.66 46 44 C47.36176581 45.98075027 48.69593116 47.98079663 50 50 C50.99 50.495 50.99 50.495 52 51 C52 51.66 52 52.32 52 53 C52.66 53 53.32 53 54 53 C54.495 54.98 54.495 54.98 55 57 C55.66 57 56.32 57 57 57 C57 57.66 57 58.32 57 59 C57.66 59 58.32 59 59 59 C60.59375 60.80078125 60.59375 60.80078125 62.5 63.3125 C66.44671276 68.39824567 70.68193475 73.07241274 75.09375 77.75 C77 80 77 80 77 82 C77.66 82 78.32 82 79 82 C80.9453125 84.1171875 80.9453125 84.1171875 83.125 86.875 C84.21167969 88.23238281 84.21167969 88.23238281 85.3203125 89.6171875 C87 92 87 92 87 94 C87.66 94 88.32 94 89 94 C89 94.66 89 95.32 89 96 C89.66 96 90.32 96 91 96 C91 96.66 91 97.32 91 98 C91.66 98 92.32 98 93 98 C94.59375 99.80078125 94.59375 99.80078125 96.5 102.3125 C99.50665801 106.17276617 102.61752095 109.8430141 105.9375 113.4375 C110.18246067 118.04275826 114.17520145 122.79952558 118.08984375 127.6875 C119.89810118 129.96615487 119.89810118 129.96615487 121.75390625 131.6875 C123 133 123 133 123 135 C123.66 135 124.32 135 125 135 C129 139.47058824 129 139.47058824 129 142 C129.99 142.33 130.98 142.66 132 143 C135 146.44444444 135 146.44444444 135 149 C135.66 149 136.32 149 137 149 C137 149.66 137 150.32 137 151 C137.66 151 138.32 151 139 151 C139.66 151.99 140.32 152.98 141 154 C141.33 103.18 141.66 52.36 142 0 C149.59 0 157.18 0 165 0 C165 68.97 165 137.94 165 209 C158 209 158 209 155.5234375 206.76953125 C154.81445312 205.79371094 154.10546875 204.81789063 153.375 203.8125 C151.09839595 200.74278299 148.95079005 197.95141384 146.2265625 195.26171875 C144 193 144 193 144 191 C143.34 191 142.68 191 142 191 C138 186.52941176 138 186.52941176 138 184 C137.34 184 136.68 184 136 184 C135.9175 183.38125 135.835 182.7625 135.75 182.125 C135.22582463 179.84760682 135.22582463 179.84760682 133.1875 179.1171875 C130.5779785 177.78446759 129.1551782 176.21456611 127.25 174 C126.63640625 173.29875 126.0228125 172.5975 125.390625 171.875 C124 170 124 170 124 168 C123.34 168 122.68 168 122 168 C119 164.53846154 119 164.53846154 119 162 C118.071875 161.6596875 118.071875 161.6596875 117.125 161.3125 C114.3780195 159.61583557 114.13364727 157.94748289 113 155 C112.01 154.67 111.02 154.34 110 154 C110 153.34 110 152.68 110 152 C109.34 152 108.68 152 108 152 C106.39365985 150.26608049 104.8624713 148.461909 103.375 146.625 C102.55773437 145.62726563 101.74046875 144.62953125 100.8984375 143.6015625 C99 141 99 141 99 139 C98.01 138.67 97.02 138.34 96 138 C96 137.34 96 136.68 96 136 C95.34 136 94.68 136 94 136 C90 131.52941176 90 131.52941176 90 129 C89.34 129 88.68 129 88 129 C87.67 127.68 87.34 126.36 87 125 C86.34 125 85.68 125 85 125 C85 124.34 85 123.68 85 123 C83.515 122.505 83.515 122.505 82 122 C80.39453125 120.44140625 80.39453125 120.44140625 78.8125 118.5625 C78.28269531 117.94503906 77.75289062 117.32757813 77.20703125 116.69140625 C76 115 76 115 76 113 C75.34 113 74.68 113 74 113 C71 109.53846154 71 109.53846154 71 107 C69.515 106.505 69.515 106.505 68 106 C66.39453125 104.44140625 66.39453125 104.44140625 64.8125 102.5625 C64.28269531 101.94503906 63.75289062 101.32757813 63.20703125 100.69140625 C62 99 62 99 62 97 C61.34 97 60.68 97 60 97 C58.39365985 95.26608049 56.8624713 93.461909 55.375 91.625 C54.55773437 90.62726563 53.74046875 89.62953125 52.8984375 88.6015625 C51 86 51 86 51 84 C50.01 83.67 49.02 83.34 48 83 C48 82.34 48 81.68 48 81 C47.34 81 46.68 81 46 81 C42 76.52941176 42 76.52941176 42 74 C41.34 74 40.68 74 40 74 C37 70.53846154 37 70.53846154 37 68 C36.34 68 35.68 68 35 68 C35 67.34 35 66.68 35 66 C34.01 65.67 33.02 65.34 32 65 C30.63823419 63.01924973 29.30406884 61.01920337 28 59 C27.34 58.67 26.68 58.34 26 58 C26 57.34 26 56.68 26 56 C25.34 56 24.68 56 24 56 C23.67 106.49 23.34 156.98 23 209 C15.41 209 7.82 209 0 209 C0 140.03 0 71.06 0 0 Z " fill="#C41514" transform="translate(553,181)"/>
<path d="M0 0 C1.22912109 -0.01611328 2.45824219 -0.03222656 3.72460938 -0.04882812 C21.46585111 -0.05819026 39.02195517 5.59453875 52.6875 17.3125 C52.6875 17.9725 52.6875 18.6325 52.6875 19.3125 C53.30625 19.56 53.925 19.8075 54.5625 20.0625 C57.07460296 21.54020762 57.44857344 22.75205177 58.6875 25.3125 C59.6775 25.6425 60.6675 25.9725 61.6875 26.3125 C76.74440948 40.9967137 79.53262146 63.67956483 80.6875 83.3125 C35.1475 83.3125 -10.3925 83.3125 -57.3125 83.3125 C-55.46941292 94.37102247 -53.74145853 102.71458891 -49.3359375 112.7734375 C-48.3125 115.3125 -48.3125 115.3125 -48.3125 117.3125 C-47.6525 117.3125 -46.9925 117.3125 -46.3125 117.3125 C-43.3125 121.69711538 -43.3125 121.69711538 -43.3125 124.3125 C-41.9925 124.9725 -40.6725 125.6325 -39.3125 126.3125 C-39.3125 126.9725 -39.3125 127.6325 -39.3125 128.3125 C-38.74015625 128.5909375 -38.1678125 128.869375 -37.578125 129.15625 C-35.34632434 130.29523792 -33.20379126 131.51186383 -31.0625 132.8125 C-30.35609375 133.2353125 -29.6496875 133.658125 -28.921875 134.09375 C-28.12523437 134.69703125 -28.12523437 134.69703125 -27.3125 135.3125 C-27.3125 135.9725 -27.3125 136.6325 -27.3125 137.3125 C-26.1059375 137.4671875 -26.1059375 137.4671875 -24.875 137.625 C-22.06958369 138.16639613 -19.93353513 138.81346677 -17.3125 139.82421875 C-4.31961698 144.20183916 13.39027332 142.89041207 25.8671875 137.24609375 C34.59436566 132.77013757 44.20787713 126.27174574 48.6875 117.3125 C49.3475 117.3125 50.0075 117.3125 50.6875 117.3125 C51.05875 116.260625 51.05875 116.260625 51.4375 115.1875 C52.84838026 111.94247541 54.66645398 109.20933263 56.6875 106.3125 C60.82914415 106.94025383 64.13519239 108.31991906 67.875 110.1875 C68.92042969 110.70054687 69.96585938 111.21359375 71.04296875 111.7421875 C73.6875 113.3125 73.6875 113.3125 75.6875 116.3125 C74.03080332 119.31812758 72.3610132 122.3162099 70.6875 125.3125 C70.130625 126.323125 69.57375 127.33375 69 128.375 C68.566875 129.014375 68.13375 129.65375 67.6875 130.3125 C67.0275 130.3125 66.3675 130.3125 65.6875 130.3125 C65.58308594 130.89515625 65.47867188 131.4778125 65.37109375 132.078125 C64.58456383 134.64895423 63.51184109 136.0465058 61.75 138.0625 C61.22535156 138.67609375 60.70070313 139.2896875 60.16015625 139.921875 C58.6875 141.3125 58.6875 141.3125 56.6875 141.3125 C56.6875 141.9725 56.6875 142.6325 56.6875 143.3125 C40.43485035 157.27028809 22.73482244 162.47702864 1.6875 162.5625 C-0.17068359 162.5934375 -0.17068359 162.5934375 -2.06640625 162.625 C-20.33479828 162.70119767 -38.20847267 157.40645218 -52.3125 145.3125 C-52.3125 144.6525 -52.3125 143.9925 -52.3125 143.3125 C-52.9725 143.3125 -53.6325 143.3125 -54.3125 143.3125 C-54.3125 142.6525 -54.3125 141.9925 -54.3125 141.3125 C-54.9725 141.3125 -55.6325 141.3125 -56.3125 141.3125 C-56.3125 140.6525 -56.3125 139.9925 -56.3125 139.3125 C-56.9725 139.3125 -57.6325 139.3125 -58.3125 139.3125 C-59.6015625 137.8515625 -59.6015625 137.8515625 -60.9375 135.9375 C-61.38351563 135.31101562 -61.82953125 134.68453125 -62.2890625 134.0390625 C-63.3125 132.3125 -63.3125 132.3125 -63.3125 130.3125 C-63.9725 130.3125 -64.6325 130.3125 -65.3125 130.3125 C-71.3540513 121.44670544 -75.21171391 112.37389485 -77.6640625 101.984375 C-78.29189281 99.23504489 -78.29189281 99.23504489 -79.3125 96.3125 C-79.5514579 91.60804152 -79.49769576 86.89736418 -79.5 82.1875 C-79.51224609 80.89328125 -79.52449219 79.5990625 -79.53710938 78.265625 C-79.55079541 69.3058352 -78.87566858 61.48225687 -75.375 53.1875 C-74.84519531 51.92873047 -74.84519531 51.92873047 -74.3046875 50.64453125 C-73.97726563 49.87496094 -73.64984375 49.10539062 -73.3125 48.3125 C-72.6628125 46.6109375 -72.6628125 46.6109375 -72 44.875 C-66.69091475 33.66693114 -57.98480682 21.12763163 -47.3125 14.3125 C-46.6525 14.3125 -45.9925 14.3125 -45.3125 14.3125 C-45.3125 13.6525 -45.3125 12.9925 -45.3125 12.3125 C-30.0781106 3.62368475 -17.59189985 -0.04569325 0 0 Z M-20.3125 23.3125 C-21.13621094 23.60511719 -21.95992187 23.89773437 -22.80859375 24.19921875 C-37.91952128 30.4320963 -47.0801671 42.72653883 -53.3125 57.3125 C-53.9725 59.6225 -54.6325 61.9325 -55.3125 64.3125 C-18.6825 64.3125 17.9475 64.3125 55.6875 64.3125 C53.6902726 50.33190823 47.1935134 40.6308771 36.6875 31.3125 C33.87240007 29.0351499 33.87240007 29.0351499 30.6875 29.3125 C30.6875 28.6525 30.6875 27.9925 30.6875 27.3125 C29.6975 27.3125 28.7075 27.3125 27.6875 27.3125 C27.6875 26.6525 27.6875 25.9925 27.6875 25.3125 C26.5325 24.85875 25.3775 24.405 24.1875 23.9375 C23.21296875 23.55464844 23.21296875 23.55464844 22.21875 23.1640625 C14.72568003 20.64324575 8.12665813 19.97434313 0.25 20 C-1.22823242 19.97583008 -1.22823242 19.97583008 -2.73632812 19.95117188 C-9.16908192 19.94690895 -14.36103516 20.89919922 -20.3125 23.3125 Z " fill="#0A0A09" transform="translate(267.3125,230.6875)"/>
<path d="M0 0 C38.28 0 76.56 0 116 0 C116 6.93 116 13.86 116 21 C115.505 21.495 115.505 21.495 115 22 C99.82 22 84.64 22 69 22 C69 83.71 69 145.42 69 209 C61.41 209 53.82 209 46 209 C46 147.29 46 85.58 46 22 C30.82 22 15.64 22 0 22 C0 14.74 0 7.48 0 0 Z " fill="#0B0A09" transform="translate(69,181)"/>
<path d="M0 0 C0.87446777 -0.0103125 1.74893555 -0.020625 2.64990234 -0.03125 C11.63284112 0.09002725 19.37514459 2.40149153 27.0625 7 C28.08601563 7.59941406 29.10953125 8.19882813 30.1640625 8.81640625 C30.91429687 9.35136719 31.66453125 9.88632813 32.4375 10.4375 C32.4375 11.0975 32.4375 11.7575 32.4375 12.4375 C32.994375 12.52 33.55125 12.6025 34.125 12.6875 C37.17427919 13.67645541 39.08939963 15.28507466 41.4375 17.4375 C41.4375 18.0975 41.4375 18.7575 41.4375 19.4375 C42.0975 19.4375 42.7575 19.4375 43.4375 19.4375 C42.9425 21.9125 42.9425 21.9125 42.4375 24.4375 C40.9525 24.9325 40.9525 24.9325 39.4375 25.4375 C39.4375 26.0975 39.4375 26.7575 39.4375 27.4375 C38.7775 27.4375 38.1175 27.4375 37.4375 27.4375 C37.06625 28.30375 37.06625 28.30375 36.6875 29.1875 C35.27066683 31.7377997 33.56122463 33.45535701 31.4375 35.4375 C29.7875 34.7775 28.1375 34.1175 26.4375 33.4375 C26.4375 32.7775 26.4375 32.1175 26.4375 31.4375 C25.2928125 31.0353125 25.2928125 31.0353125 24.125 30.625 C21.4375 29.4375 21.4375 29.4375 20.1015625 28.03125 C13.57192328 21.77751103 4.24460882 20.88984842 -4.3359375 20.96875 C-9.9822016 21.7890305 -14.45404118 24.55112004 -18.5625 28.4375 C-22.47264132 33.83079837 -22.49409393 40.03384085 -21.5625 46.4375 C-20.50155267 48.82177948 -19.32253562 50.73830752 -17.75390625 52.81640625 C-16.5625 54.4375 -16.5625 54.4375 -15.5625 57.4375 C-13.27358972 58.81084617 -11.10497553 59.59000816 -8.5625 60.4375 C-8.5625 61.0975 -8.5625 61.7575 -8.5625 62.4375 C-7.86253906 62.70175781 -7.16257812 62.96601563 -6.44140625 63.23828125 C5.59382584 68.25160045 18.21151879 75.30319677 28.4375 83.4375 C28.4375 84.0975 28.4375 84.7575 28.4375 85.4375 C30.4175 86.4275 30.4175 86.4275 32.4375 87.4375 C32.4375 88.0975 32.4375 88.7575 32.4375 89.4375 C33.9225 89.9325 33.9225 89.9325 35.4375 90.4375 C36.97265625 92.51171875 36.97265625 92.51171875 38.5 95.125 C39.00660156 95.97449219 39.51320313 96.82398438 40.03515625 97.69921875 C45.09358093 107.57653268 45.99450549 120.32123382 42.65234375 130.9296875 C40.61054385 136.36897631 38.1511968 141.91537941 34.4375 146.4375 C33.7775 146.4375 33.1175 146.4375 32.4375 146.4375 C31.7775 147.7575 31.1175 149.0775 30.4375 150.4375 C29.7775 150.4375 29.1175 150.4375 28.4375 150.4375 C28.1075 151.4275 27.7775 152.4175 27.4375 153.4375 C25.50390625 154.9375 25.50390625 154.9375 23 156.4375 C22.19691406 156.9325 21.39382813 157.4275 20.56640625 157.9375 C12.64313823 161.73592062 5.23642333 162.94381738 -3.5 162.8125 C-4.94959106 162.79944824 -4.94959106 162.79944824 -6.4284668 162.78613281 C-16.85426602 162.57136751 -25.23329147 159.97541131 -34.5625 155.4375 C-34.5625 154.7775 -34.5625 154.1175 -34.5625 153.4375 C-35.11550781 153.36273438 -35.66851562 153.28796875 -36.23828125 153.2109375 C-39.42454098 152.15063594 -41.278741 150.31839078 -43.75 148.0625 C-44.63042969 147.27101563 -45.51085937 146.47953125 -46.41796875 145.6640625 C-48.5625 143.4375 -48.5625 143.4375 -49.5625 140.4375 C-48.05078125 138.09765625 -48.05078125 138.09765625 -45.875 135.5 C-45.16988281 134.64535156 -44.46476562 133.79070312 -43.73828125 132.91015625 C-41.75666333 130.658156 -39.71184675 128.52862517 -37.5625 126.4375 C-32.96110359 127.92618707 -30.06022906 130.18379855 -26.5625 133.4375 C-26.5625 134.0975 -26.5625 134.7575 -26.5625 135.4375 C-25.61375 135.72625 -24.665 136.015 -23.6875 136.3125 C-20.5625 137.4375 -20.5625 137.4375 -18.5625 139.4375 C-9.79996644 142.47359363 0.40553836 143.33366112 9 139.375 C15.73308002 135.38212697 19.87644618 130.31635833 22.03125 122.76171875 C23.25620368 115.75357028 21.39487679 109.29143095 17.4375 103.4375 C16.7775 103.1075 16.1175 102.7775 15.4375 102.4375 C15.4375 101.7775 15.4375 101.1175 15.4375 100.4375 C14.90640625 100.1796875 14.3753125 99.921875 13.828125 99.65625 C10.89916356 98.16305397 8.04368218 96.56566182 5.1875 94.9375 C4.10984375 94.3290625 3.0321875 93.720625 1.921875 93.09375 C1.10203125 92.5471875 0.2821875 92.000625 -0.5625 91.4375 C-0.5625 90.7775 -0.5625 90.1175 -0.5625 89.4375 C-1.23023438 89.355 -1.89796875 89.2725 -2.5859375 89.1875 C-15.34293387 85.97313871 -29.3819903 75.65601551 -36.5625 64.9375 C-37.60155088 63.12601321 -38.60574509 61.29376807 -39.5625 59.4375 C-39.92214844 58.75558594 -40.28179687 58.07367188 -40.65234375 57.37109375 C-44.56483879 48.15779897 -44.11295755 33.94552439 -40.65234375 24.6640625 C-35.43011815 13.99499945 -27.50214415 6.84700512 -16.6875 1.9375 C-11.19296208 0.15355912 -5.72764247 0.05612388 0 0 Z " fill="#0B0A09" transform="translate(403.5625,230.5625)"/>
<path d="M0 0 C6.93 0 13.86 0 21 0 C21 18.81 21 37.62 21 57 C31.56 57 42.12 57 53 57 C53 63.27 53 69.54 53 76 C42.44 76 31.88 76 21 76 C21 121.21 21 166.42 21 213 C14.07 213 7.14 213 0 213 C-1 212 -1 212 -1.12304783 209.75298977 C-1.12166514 208.25000631 -1.12166514 208.25000631 -1.12025452 206.71665955 C-1.12162918 205.57095993 -1.12300385 204.42526031 -1.12442017 203.24484253 C-1.12082489 201.97673737 -1.11722961 200.7086322 -1.11352539 199.40209961 C-1.11324352 198.06206769 -1.11340125 196.72203561 -1.1139679 195.38200378 C-1.11425587 191.73340562 -1.1083592 188.08484005 -1.10139394 184.43624949 C-1.09516034 180.62722484 -1.0945566 176.8181995 -1.09336853 173.00917053 C-1.09025523 165.79142246 -1.08204186 158.57368946 -1.07201904 151.35594803 C-1.06085786 143.14084743 -1.05534744 134.92574612 -1.05032361 126.71063983 C-1.03985925 109.807083 -1.02151379 92.90354693 -1 76 C-9.58 76 -18.16 76 -27 76 C-27 69.73 -27 63.46 -27 57 C-18.42 57 -9.84 57 -1 57 C-1.01160156 52.96910156 -1.02320313 48.93820313 -1.03515625 44.78515625 C-1.04158328 41.57922141 -1.04700747 38.37328837 -1.05175018 35.16735077 C-1.05703969 31.77862769 -1.0641128 28.38992944 -1.07543945 25.0012207 C-1.08834267 21.11670223 -1.09322924 17.23219403 -1.09765625 13.34765625 C-1.10281754 12.12788589 -1.10797882 10.90811554 -1.11329651 9.65138245 C-1.11340981 7.96975258 -1.11340981 7.96975258 -1.11352539 6.25415039 C-1.115746 5.26153702 -1.11796661 4.26892365 -1.12025452 3.24623108 C-1 1 -1 1 0 0 Z " fill="#090909" transform="translate(484,177)"/>
</svg>
