<svg version="1.1" id="Layer_1" xmlns="http://www.w3.org/2000/svg" xmlns:xlink="http://www.w3.org/1999/xlink" x="0px" y="0px" viewBox="0 0 464.92 56.825" style="enable-background:new 0 0 464.92 56.825;" xml:space="preserve">

 <g>
  <g>
   <path class="st1" d="M140.425,25.729c0,0-7.011-0.8-9.914-0.8c-4.207,0-6.36,1.503-6.36,4.457c0,3.205,1.803,3.955,7.661,5.558
			c7.211,2.002,9.814,3.906,9.814,9.764c0,7.511-4.706,10.765-11.466,10.765c-4.457,0-11.216-1.352-11.216-1.352l0.551-4.457
			c0,0,6.759,0.902,10.315,0.902c4.255,0,6.208-1.903,6.208-5.509c0-2.905-1.552-3.906-6.81-5.158
			c-7.411-1.902-10.615-4.156-10.615-10.114c0-6.911,4.557-9.764,11.417-9.764c4.356,0,10.866,1.201,10.866,1.201L140.425,25.729z">
   </path>
   <path class="st1" d="M155.271,20.826h9.353l7.661,26.789l7.661-26.789h9.325v34h-5v-30h-0.514l-8.567,29h-5.809l-8.568-29h-0.541
			v30h-5V20.826z">
   </path>
   <path class="st1" d="M275.271,20.826h26v5h-10v29h-6v-29h-10V20.826z">
   </path>
   <path class="st1" d="M324.97,20.826c6.81,0,10.465,2.451,10.465,8.811c0,4.156-1.301,6.157-4.056,7.66
			c2.954,1.151,4.907,3.18,4.907,7.888c0,7.011-4.255,9.641-10.916,9.641h-13.1v-34H324.97z M317.271,25.826v9h7.599
			c3.406,0,4.907-1.294,4.907-4.651c0-3.304-1.702-4.349-5.107-4.349H317.271z M317.271,39.826v10h7.8
			c3.454,0,5.507-1.019,5.507-5.126c0-3.906-2.905-4.874-5.608-4.874H317.271z">
   </path>
   <path class="st1" d="M350.271,20.826h21v5h-16v9h13v5h-13v10h16v5h-21V20.826z">
   </path>
   <path class="st1" d="M391.629,20.826h11.066l8.512,34h-5.608l-2.533-10h-11.81l-2.532,10h-5.558L391.629,20.826z M392.368,39.826
			h9.622l-3.55-15h-2.504L392.368,39.826z">
   </path>
   <path class="st1" d="M429.271,44.826v10h-6v-34h13.328c7.561,0,11.617,4.23,11.617,11.84c0,4.857-1.953,9.14-5.608,10.842
			l5.659,11.318h-6.109l-4.958-10H429.271z M436.599,25.826h-7.328v14h7.429c4.206,0,5.808-3.52,5.808-7.074
			C442.507,28.845,440.605,25.826,436.599,25.826z">
   </path>
   <path class="st1" d="M210.244,20.826h11.066l8.512,34h-5.608l-2.533-10h-11.81l-2.532,10h-5.558L210.244,20.826z M210.982,39.826
			h9.622l-3.55-15h-2.504L210.982,39.826z">
   </path>
   <path class="st1" d="M247.271,44.826v10h-5v-34h12.943c7.561,0,11.617,4.23,11.617,11.84c0,4.857-1.953,9.14-5.608,10.842
			l5.659,11.318h-6.109l-4.958-10H247.271z M255.214,25.826h-7.943v14h8.043c4.206,0,5.808-3.52,5.808-7.074
			C261.122,28.845,259.22,25.826,255.214,25.826z">
   </path>
  </g>
  <g>
   <g>
    <g>
     <rect x="454.917" y="50.353" class="st7" width="9.937" height="10.973">
     </rect>
     <path class="st1" d="M456.962,54.913h-0.7v-3.683h-1.26V50.63h3.22v0.601h-1.26V54.913z">
     </path>
     <path class="st1" d="M461.029,54.913l-1.242-3.577h-0.023c0.033,0.531,0.05,1.029,0.05,1.494v2.083h-0.636V50.63h0.987
					l1.189,3.407h0.018l1.225-3.407h0.99v4.283h-0.674v-2.118c0-0.213,0.005-0.49,0.016-0.832s0.02-0.549,0.028-0.621h-0.023
					l-1.286,3.571H461.029z">
     </path>
    </g>
   </g>
  </g>
  <path class="st1" d="M58.554,47.826H42.649l-2.821,9h21.546L58.554,47.826z M101.203,56.826L92.86,31.149l5.389-16.587
		L78.208-0.216L64.092,9.826H37.111L22.995-0.216L2.954,14.454l5.389,16.642L0,56.826h26.322l-2.045-6.299l26.326-19.125
		l26.322,19.125l-2.045,6.299H101.203z">
  </path>
 </g>
</svg>