<?xml version="1.0" encoding="UTF-8"?>
<svg version="1.1" xmlns="http://www.w3.org/2000/svg" width="820" height="659">
<path d="M0 0 C1.34120844 -0.00533251 2.68241089 -0.01240223 4.02360207 -0.02104706 C7.68960302 -0.03960836 11.35519821 -0.03339219 15.02121556 -0.02289402 C18.98246622 -0.01588339 22.94363509 -0.03191404 26.90486145 -0.04489136 C34.65746774 -0.06650547 42.4099271 -0.06641113 50.1625536 -0.05826581 C56.46518546 -0.05195955 62.76777455 -0.05310858 69.07040596 -0.05953789 C69.96829172 -0.06043954 70.86617749 -0.0613412 71.79127191 -0.06227018 C73.61546581 -0.06412142 75.43965969 -0.06598399 77.26385356 -0.06785773 C94.36036281 -0.08442719 111.45678949 -0.07572428 128.55329377 -0.05887216 C144.18533251 -0.04417603 159.81717901 -0.05880387 175.44919299 -0.08764232 C191.51154344 -0.11705335 207.57380522 -0.12800362 223.63618141 -0.11846012 C225.4538762 -0.1174376 227.27157101 -0.11644299 229.08926582 -0.11547661 C230.43067656 -0.11476202 230.43067656 -0.11476202 231.79918651 -0.114033 C238.09144383 -0.11187112 244.38361698 -0.1216609 250.67585564 -0.13624763 C258.34816559 -0.153786 266.02023053 -0.15363209 273.69253092 -0.13089598 C277.60477218 -0.11976735 281.51658198 -0.11655955 285.4288044 -0.13519669 C289.0147572 -0.15205932 292.59990419 -0.14557373 296.18580533 -0.1209799 C298.08775608 -0.11382176 299.98975118 -0.13107979 301.89162725 -0.14939123 C311.27029566 -0.04777252 319.16849706 2.38851461 326.02174377 9.0771637 C331.11276255 14.50827077 333.53459445 21.48663363 333.74049377 28.8818512 C333.70955627 29.75067932 333.67861877 30.61950745 333.64674377 31.5146637 C334.82236877 31.5559137 335.99799377 31.5971637 337.20924377 31.6396637 C344.46605003 32.44977886 351.03509769 35.58378225 357.64674377 38.5146637 C358.68315002 38.96970276 359.71955627 39.42474182 360.78736877 39.89356995 C383.57670824 50.58749796 401.08498268 68.90713275 409.96705627 92.52589417 C411.74799951 97.73694429 412.80616719 103.08324579 413.64674377 108.5146637 C413.81987595 109.59203796 413.99300812 110.66941223 414.17138672 111.7794342 C414.97552066 118.34250823 414.77750356 124.95883447 414.76026917 131.55958557 C414.75998674 133.07798765 414.7601461 134.59638987 414.76071167 136.11479187 C414.7609975 140.21750516 414.75513547 144.32018897 414.74813771 148.42289543 C414.74186844 152.71768416 414.74129755 157.01247364 414.7401123 161.30726624 C414.73700951 169.4314292 414.72881032 177.55557864 414.71876281 185.67973566 C414.70756899 194.93246395 414.702083 204.18519291 414.69706738 213.43792629 C414.6866268 232.46351308 414.66904777 251.4890873 414.64674377 270.5146637 C415.25389221 270.79052307 415.86104065 271.06638245 416.48658752 271.3506012 C421.5334898 274.07027005 424.4513302 279.07261143 426.19752502 284.3818512 C427.01973444 288.28555852 426.88707729 291.71406955 425.64674377 295.5146637 C424.637264 296.7907985 423.59233624 298.03934691 422.52174377 299.2646637 C416.63601858 307.26249124 419.88305615 320.09638365 421.18190002 329.3115387 C421.52348181 331.38633176 421.86832606 333.46059142 422.21705627 335.53419495 C423.61491657 345.23026227 423.52220237 353.35102399 417.64674377 361.5146637 C413.31502712 366.36014209 408.90803682 369.11943416 402.33033752 369.72950745 C395.81753811 369.97808758 390.09658785 369.33086294 384.92408752 365.1084137 C378.67459213 358.59788287 377.43620734 350.25135356 376.85768127 341.5459137 C376.7604642 339.44840828 376.7604642 339.44840828 375.64674377 337.5146637 C371.36743804 338.73732248 369.77752062 340.61771836 367.08033752 344.0459137 C363.89462298 347.30975203 359.87524333 348.38609641 355.41236877 348.64356995 C349.5960293 348.31264029 345.04234854 346.33244249 340.64674377 342.5146637 C337.5257448 338.12575888 336.77661417 333.79344996 337.64674377 328.5146637 C339.26558795 323.62331731 341.77009236 319.2973494 344.39674377 314.8896637 C346.6270719 310.92617037 347.44436547 308.12314463 346.64674377 303.5146637 C344.82151949 300.85812641 344.82151949 300.85812641 342.64674377 298.5146637 C339.98082486 293.84930559 339.89421162 288.73584037 340.64674377 283.5146637 C342.40746888 278.73123455 344.28595239 275.33596902 348.7081604 272.66694641 C350.92258354 270.82337772 351.57894621 269.8274325 352.19648552 266.97855377 C352.39470488 263.62982774 352.39957047 260.32696916 352.34376526 256.97267151 C352.34624771 255.6989267 352.34873016 254.42518188 352.35128784 253.11283875 C352.35727478 249.62455453 352.32612819 246.13748258 352.28803897 242.6494379 C352.25416754 238.99150269 352.253655 235.33355912 352.2492981 231.67549133 C352.23734199 225.52857026 352.20354914 219.38209783 352.15431213 213.23536682 C352.08509903 204.58961265 352.05558172 195.94406068 352.03391159 187.2980752 C352.01555551 180.56295046 351.9862325 173.82786588 351.95533752 167.0927887 C351.95216609 166.37484162 351.94899465 165.65689455 351.94572711 164.91719151 C351.92387761 160.1361213 351.8920063 155.35521491 351.85548401 150.57423401 C351.84965302 149.38014923 351.84382202 148.18606445 351.83781433 146.95579529 C351.87903676 132.05795752 351.87903676 132.05795752 344.64674377 119.5146637 C341.20361775 116.75900747 337.58811878 114.4853512 333.64674377 112.5146637 C333.65043095 113.60742269 333.65411812 114.70018167 333.65791702 115.82605457 C333.74677663 142.43438225 333.81247595 169.04269065 333.85399246 195.65113544 C333.87460398 208.51886588 333.90269777 221.3864982 333.94850159 234.25416565 C333.98841234 245.47165706 334.01418684 256.6890774 334.02309775 267.90663785 C334.02830527 273.84441661 334.04051578 279.78199207 334.069664 285.71970558 C334.09689987 291.31340256 334.10517218 296.90681331 334.0991745 302.5005703 C334.10027108 304.54875114 334.10817596 306.59694199 334.12356567 308.64506531 C334.2185381 321.94134378 334.2491406 333.66360222 324.51393127 343.8584137 C313.16946658 353.92128615 301.33300986 350.5146637 285.64674377 350.5146637 C285.64674377 375.5946637 285.64674377 400.6746637 285.64674377 426.5146637 C291.25674377 426.5146637 296.86674377 426.5146637 302.64674377 426.5146637 C313.67661828 429.75874443 322.80802224 436.10796897 328.70924377 446.2021637 C331.95328786 452.50662674 332.94670649 458.79486053 332.87721252 465.8193512 C332.8767543 466.58393646 332.87629608 467.34852173 332.87582397 468.13627625 C332.87282294 469.7380073 332.86500182 471.33973601 332.85255432 472.94142151 C332.83414075 475.40343937 332.83204601 477.86508372 332.83229065 480.3271637 C332.82738053 481.88706281 332.82155443 483.44695936 332.81471252 485.0068512 C332.8135997 485.74531281 332.81248688 486.48377441 332.81134033 487.24461365 C332.76284673 492.39856074 332.76284673 492.39856074 331.64674377 493.5146637 C328.82837549 493.66863166 326.03356155 493.75708052 323.21266174 493.80274963 C321.88262115 493.8294725 321.88262115 493.8294725 320.52571106 493.85673523 C312.22468848 494.01308506 303.92242505 494.099196 295.62025261 494.16672897 C290.06110155 494.21240719 284.50412848 494.27857471 278.94606018 494.39942932 C252.16373146 494.96804161 229.08267943 494.38467727 204.64674377 482.5146637 C204.57190183 477.71326504 204.51781923 472.91221508 204.48194885 468.11036682 C204.46697611 466.48107478 204.44659056 464.85182224 204.42042542 463.22267151 C204.10143994 442.83261945 204.10143994 442.83261945 209.64674377 434.5146637 C209.85984464 431.79824065 209.95798435 429.18130295 209.96559143 426.46315002 C209.97574469 425.63016482 209.98589794 424.79717962 209.99635887 423.93895245 C210.02700438 421.24153771 210.04415399 418.5442286 210.06080627 415.84669495 C210.07773893 414.18176867 210.09555536 412.51685114 210.11427307 410.85194397 C210.17748252 404.67711764 210.22357056 398.50212564 210.27174377 392.3271637 C210.39549377 378.5290387 210.51924377 364.7309137 210.64674377 350.5146637 C169.72674377 350.5146637 128.80674377 350.5146637 86.64674377 350.5146637 C86.72924377 364.2096637 86.81174377 377.9046637 86.89674377 392.0146637 C86.91253479 396.32722229 86.92832581 400.63978088 86.94459534 405.08302307 C86.97784527 408.97348995 86.97784527 408.97348995 87.01631165 412.86390686 C87.03085564 414.58684281 87.03769448 416.30985494 87.0382843 418.03285217 C87.04071602 420.65424661 87.06816097 423.27435344 87.10084534 425.89552307 C87.09582127 426.65368065 87.0907972 427.41183823 87.08562088 428.19297028 C87.18112645 433.11248828 88.30464306 436.53399037 90.71828938 440.82442188 C93.23825336 445.41199075 92.77989947 450.57099905 92.74440002 455.65919495 C92.7422776 456.8138752 92.7422776 456.8138752 92.7401123 457.99188232 C92.73453984 460.43701658 92.72199248 462.88205738 92.70924377 465.3271637 C92.70422521 466.99057383 92.69966293 468.6539854 92.6955719 470.31739807 C92.68457943 474.38318898 92.66733388 478.44891052 92.64674377 482.5146637 C89.16832966 483.78756325 85.68887601 485.0575982 82.20924377 486.3271637 C81.23535706 486.68358948 80.26147034 487.04001526 79.2580719 487.40724182 C77.81271057 487.93414612 77.81271057 487.93414612 76.33815002 488.47169495 C75.02632751 488.95086365 75.02632751 488.95086365 73.68800354 489.43971252 C72.68438782 489.79444641 71.68077209 490.1491803 70.64674377 490.5146637 C70.01420433 490.76191696 69.38166489 491.00917023 68.72995758 491.26391602 C62.93060667 493.40985691 57.87116132 493.9310834 51.72071838 493.85523987 C50.29960251 493.85589699 50.29960251 493.85589699 48.84977722 493.85656738 C45.74933033 493.854494 42.64943878 493.83123175 39.54908752 493.80763245 C37.38718969 493.80203133 35.22528803 493.79776367 33.06338501 493.79476929 C27.39656404 493.78336114 21.72997683 493.75392875 16.06324768 493.72065735 C10.27145041 493.68986937 4.47961506 493.67624534 -1.3122406 493.66114807 C-12.65934803 493.62905511 -24.00628263 493.57790773 -35.35325623 493.5146637 C-35.47801431 488.30438204 -35.56813384 483.09499319 -35.62791443 477.88356018 C-35.65286654 476.11550222 -35.68684121 474.34754535 -35.73045349 472.57984924 C-36.0573574 458.97680058 -35.02368751 448.63338054 -25.23216248 438.29200745 C-22.12891937 435.35650722 -18.95390523 432.81526741 -15.35325623 430.5146637 C-14.72290466 430.09958557 -14.0925531 429.68450745 -13.44309998 429.2568512 C-5.34030967 424.79172976 0.45066581 426.5146637 10.64674377 426.5146637 C10.64674377 401.7646637 10.64674377 377.0146637 10.64674377 351.5146637 C2.72674377 351.1846637 -5.19325623 350.8546637 -13.35325623 350.5146637 C-24.63062849 346.00371479 -24.63062849 346.00371479 -28.35325623 341.5146637 C-29.05450623 340.7309137 -29.75575623 339.9471637 -30.47825623 339.1396637 C-34.89624598 332.95447804 -35.79260128 327.84408672 -35.71401978 320.4347229 C-35.71658305 319.54261106 -35.71914632 318.65049923 -35.72178727 317.7313537 C-35.72671285 314.75407094 -35.71025241 311.77729982 -35.6938324 308.80006409 C-35.69298586 306.66112785 -35.69346179 304.52219074 -35.69515991 302.383255 C-35.69602025 296.58419115 -35.67838807 290.78531365 -35.65743804 284.98629308 C-35.63867777 278.92312265 -35.6369213 272.8599479 -35.63336182 266.79675293 C-35.62403947 255.31862987 -35.59942303 243.84059258 -35.56931335 232.36250728 C-35.53577533 219.29368184 -35.51928482 206.2248523 -35.50422704 193.15599453 C-35.47287371 166.27550338 -35.42010942 139.39508834 -35.35325623 112.5146637 C-36.63130351 113.14605411 -37.90847939 113.77920859 -39.18528748 114.4131012 C-39.89660828 114.76549866 -40.60792908 115.11789612 -41.34080505 115.48097229 C-47.96075222 118.88129454 -50.8778516 123.63989262 -53.35325623 130.5146637 C-54.05121699 135.11757943 -54.05786768 139.64923306 -54.03196716 144.29859924 C-54.04203841 145.65817385 -54.05419317 147.01773435 -54.06825256 148.37727356 C-54.09936647 152.04044511 -54.09901833 155.70295571 -54.09074688 159.36622596 C-54.08656553 162.43301263 -54.09759002 165.49967238 -54.10839105 168.56643707 C-54.13345557 175.80164396 -54.13245841 183.03652394 -54.11497498 190.27174377 C-54.09742602 197.72259812 -54.1239112 205.1723847 -54.17194152 212.62308091 C-54.21174927 219.03784957 -54.22434776 225.45228139 -54.21522737 231.86716682 C-54.21005428 235.6910441 -54.21502018 239.5142036 -54.24619293 243.33797264 C-54.27429606 246.9312173 -54.26829095 250.52284499 -54.2364769 254.11604309 C-54.22757181 256.05529033 -54.25307363 257.99460095 -54.27973938 259.9336853 C-54.19633528 265.69943614 -54.13435336 269.47241037 -49.91581726 273.66439819 C-49.29576939 274.15840528 -48.67572151 274.65241236 -48.03688431 275.16138935 C-44.58354919 277.93712698 -43.5915109 281.62971775 -42.47825623 285.7646637 C-42.26710053 292.09933451 -43.89350433 297.54202599 -47.66575623 302.6396637 C-49.72649476 305.50350949 -49.72649476 305.50350949 -48.97825623 309.2646637 C-47.57973887 313.66363646 -45.17466235 317.45051773 -42.69309998 321.31544495 C-39.46919517 326.60716041 -39.55354817 332.51297119 -40.35325623 338.5146637 C-42.44793828 342.94364089 -45.75451672 345.52562785 -50.16575623 347.5146637 C-55.49575026 349.13904283 -60.46532299 348.86513607 -65.52513123 346.4990387 C-69.73136424 344.00059954 -72.8961437 340.97177622 -76.35325623 337.5146637 C-77.34325623 337.5146637 -78.33325623 337.5146637 -79.35325623 337.5146637 C-79.39063904 338.42087463 -79.42802185 339.32708557 -79.46653748 340.26075745 C-80.43518297 358.20918865 -80.43518297 358.20918865 -87.22825623 364.4521637 C-92.61326389 368.9185524 -97.55147101 370.03291846 -104.43528748 369.89356995 C-110.67784711 369.08295645 -116.20989914 366.21338983 -120.35325623 361.4521637 C-126.81397496 351.96298306 -125.59079857 341.63152437 -123.91575623 330.7021637 C-120.80958662 315.20494581 -120.80958662 315.20494581 -124.25559998 300.87013245 C-124.94782654 300.09282776 -125.6400531 299.31552307 -126.35325623 298.5146637 C-129.26808476 293.8324312 -128.85818515 288.85914217 -128.35325623 283.5146637 C-126.56787931 278.69414602 -123.77177725 273.9489899 -119.25510406 271.2703352 C-117.07238159 269.61211852 -117.07238159 269.61211852 -116.85662079 266.66019917 C-116.85888294 264.90355332 -116.85888294 264.90355332 -116.8611908 263.11141968 C-116.85417231 262.13220512 -116.85417231 262.13220512 -116.84701204 261.13320845 C-116.83605981 258.94070671 -116.85358592 256.74934788 -116.87083435 254.55690002 C-116.86864878 252.98637554 -116.86465248 251.41585267 -116.85897827 249.84533691 C-116.85040074 246.45837332 -116.85421566 243.0717263 -116.86740112 239.68477821 C-116.88774025 234.31584957 -116.87775589 228.94723971 -116.86314392 223.57830811 C-116.83408658 211.19486274 -116.84479503 198.81151007 -116.85584259 186.42804718 C-116.8655425 175.11243536 -116.86661853 163.79699106 -116.83596182 152.48140734 C-116.82267906 147.15936039 -116.82842106 141.83779474 -116.84932709 136.51577723 C-116.8584046 133.1793001 -116.85075621 129.84300242 -116.83891487 126.5065403 C-116.83680923 124.97648489 -116.84135509 123.44640098 -116.85362053 121.91639328 C-116.95487201 108.51289005 -115.11348004 95.24327119 -108.66575623 83.2646637 C-108.32471863 82.60973938 -107.98368103 81.95481506 -107.63230896 81.28004456 C-94.55003472 56.91738862 -71.37175287 40.81390404 -45.35325623 32.5146637 C-42.38450623 32.00294495 -42.38450623 32.00294495 -39.85325623 31.8271637 C-38.56934998 31.72855042 -38.56934998 31.72855042 -37.25950623 31.62794495 C-36.63044373 31.59056213 -36.00138123 31.55317932 -35.35325623 31.5146637 C-35.41126404 30.90880432 -35.46927185 30.30294495 -35.52903748 29.6787262 C-35.96377343 21.60505856 -33.93083801 15.58221864 -28.55638123 9.47169495 C-19.96684878 1.41471351 -11.512985 -0.07703953 0 0 Z M9.64674377 29.5146637 C-0.37988708 45.73957544 3.64674377 59.51003843 3.64674377 80.5146637 C99.34674377 80.5146637 195.04674377 80.5146637 293.64674377 80.5146637 C296.22280332 51.32923004 296.22280332 51.32923004 284.83815002 26.39356995 C279.46288063 21.78482738 273.44972814 19.39768316 266.37184715 19.38044262 C265.52010143 19.37598478 264.6683557 19.37152693 263.7907995 19.366934 C262.85988068 19.36711836 261.92896186 19.36730273 260.96983337 19.36749268 C259.97708456 19.36381599 258.98433574 19.3601393 257.96150362 19.3563512 C254.62529592 19.34531266 251.28911936 19.34147021 247.95289612 19.33766174 C245.56461996 19.33139721 243.17634479 19.32475042 240.78807068 19.31774902 C233.61425161 19.29852182 226.44043198 19.28792069 219.26659435 19.27902123 C215.88579876 19.27463501 212.50500472 19.26926905 209.12421036 19.26403236 C197.88127404 19.24702173 186.63833868 19.23252855 175.39539146 19.22528362 C172.47901279 19.22337382 169.56263413 19.22145348 166.64625549 19.21949768 C165.9214306 19.21901394 165.19660571 19.2185302 164.44981642 19.2180318 C152.71356547 19.20973516 140.97741656 19.18440373 129.24121015 19.151917 C117.18380087 19.1188141 105.12644339 19.10083193 93.06898844 19.09763938 C86.30245739 19.09547723 79.53607514 19.08677199 72.76958847 19.06117821 C66.40184676 19.03789435 60.03437253 19.03366578 53.66659927 19.04393959 C51.33257915 19.04443498 48.99854584 19.03811369 46.66456604 19.02438354 C43.47124357 19.00665293 40.27887982 19.01377729 37.08555603 19.0269165 C36.16802154 19.01594726 35.25048705 19.00497801 34.30514848 18.99367636 C24.9586723 19.0861387 15.78270474 22.16087842 9.64674377 29.5146637 Z M-85.04075623 69.8271637 C-89.66401842 74.58088831 -93.12894677 79.7367658 -96.35325623 85.5146637 C-96.81602966 86.34353088 -97.2788031 87.17239807 -97.75559998 88.02638245 C-106.88839882 106.15318379 -105.9035288 126.09137688 -105.75883198 145.82140207 C-105.73352075 149.86519529 -105.73145326 153.90900539 -105.72673035 157.9528656 C-105.71438663 165.58097768 -105.68168396 173.20885553 -105.64133239 180.83686531 C-105.59634376 189.53357733 -105.57456012 198.23030161 -105.55455065 206.92710137 C-105.51294167 224.7897812 -105.43969959 242.65214069 -105.35325623 260.5146637 C-95.12325623 260.5146637 -84.89325623 260.5146637 -74.35325623 260.5146637 C-74.36896667 254.9447052 -74.36896667 254.9447052 -74.38499451 249.26222229 C-74.41821929 236.9568608 -74.44036198 224.65149994 -74.45688057 212.34610558 C-74.46715789 204.88957291 -74.48114974 197.43308298 -74.50413513 189.97657776 C-74.52417829 183.47139219 -74.53699836 176.96623761 -74.54143322 170.46102202 C-74.54402226 167.02210057 -74.55003206 163.58326768 -74.56471634 160.14437485 C-74.57935549 156.28907391 -74.58122899 152.43395305 -74.58030701 148.57862854 C-74.59109283 146.90086586 -74.59109283 146.90086586 -74.60209656 145.18920898 C-74.55681557 127.54977543 -71.74798096 109.96647908 -59.50950623 96.4834137 C-52.51696774 89.94940232 -44.48127584 86.1226693 -35.35325623 83.5146637 C-35.35325623 70.3146637 -35.35325623 57.1146637 -35.35325623 43.5146637 C-53.64769215 43.5146637 -72.35264126 57.82258354 -85.04075623 69.8271637 Z M333.64674377 43.5146637 C333.64674377 56.7146637 333.64674377 69.9146637 333.64674377 83.5146637 C337.60674377 85.1646637 341.56674377 86.8146637 345.64674377 88.5146637 C356.96748225 95.06877545 364.72583586 103.95755078 368.58033752 116.5693512 C371.08903513 126.19602812 371.80335357 135.14219938 371.85206604 145.05934143 C371.86196564 146.30882065 371.87186523 147.55829987 371.88206482 148.84564209 C371.90815036 152.25420455 371.93005414 155.66274488 371.9500668 159.07134509 C371.97201936 162.64012776 371.99936246 166.20886913 372.02612305 169.77761841 C372.07592515 176.52764599 372.12090998 183.27769666 372.16414541 190.02776915 C372.21362486 197.71584148 372.26850309 205.40387235 372.323825 213.09190452 C372.43745329 228.89945398 372.54362103 244.70704168 372.64674377 260.5146637 C382.54674377 260.5146637 392.44674377 260.5146637 402.64674377 260.5146637 C402.71466829 241.75495621 402.76984578 222.9953495 402.80218029 204.23554993 C402.817598 195.52352979 402.8385891 186.81159193 402.87306213 178.09962463 C402.90312158 170.4993795 402.92235573 162.899194 402.92900926 155.29889107 C402.93289373 151.28083531 402.94191416 147.26295003 402.96393394 143.24494934 C402.98456174 139.44956963 402.99052559 135.65442779 402.98606682 131.85899734 C402.98726327 129.82954595 403.00326584 127.80011941 403.02000427 125.77073669 C402.94935708 104.34936862 396.92819369 85.37206482 382.38893127 69.22169495 C370.25078264 57.32848653 351.36388182 43.5146637 333.64674377 43.5146637 Z M142.64674377 131.5146637 C142.64674377 150.6546637 142.64674377 169.7946637 142.64674377 189.5146637 C145.8837947 186.27761277 148.82868039 183.00619143 151.76783752 179.5146637 C155.59190854 175.44413488 159.71683743 172.78234204 164.70924377 170.3271637 C165.73147034 169.81798401 166.7536969 169.30880432 167.80690002 168.78419495 C178.93696619 163.80858077 191.60428381 166.51982127 202.64674377 170.5146637 C208.50866148 173.20574868 213.64226771 176.70881237 218.73658752 180.63575745 C219.446297 181.18167542 220.15600647 181.72759338 220.88722229 182.29005432 C222.28452445 183.37810569 223.66979797 184.48182714 225.04103088 185.60255432 C228.08810468 188.00864302 229.98835254 189.40559526 233.87721252 190.04981995 C237.01102185 189.44427428 238.2838913 188.69343306 240.58424377 186.5146637 C241.2674469 185.87399963 241.95065002 185.23333557 242.65455627 184.57325745 C244.52508049 182.64038242 246.24489498 180.64832672 247.95924377 178.5771637 C254.18926074 171.24689144 262.15633749 165.18313668 271.90846252 164.1787262 C273.03897034 164.16583557 274.16947815 164.15294495 275.33424377 164.1396637 C276.45186096 164.11130432 277.56947815 164.08294495 278.72096252 164.0537262 C282.64674377 164.5146637 282.64674377 164.5146637 293.64674377 168.5146637 C293.64674377 156.3046637 293.64674377 144.0946637 293.64674377 131.5146637 C243.81674377 131.5146637 193.98674377 131.5146637 142.64674377 131.5146637 Z M44.64674377 135.5146637 C41.04315675 143.33053862 37.61166751 151.20786179 34.27174377 159.1396637 C33.7898761 160.28120911 33.30800842 161.42275452 32.8115387 162.59889221 C29.89196371 169.52597627 26.99726711 176.46256301 24.15480042 183.42164612 C22.61192438 187.1939008 21.04078677 190.95253005 19.44361877 194.7021637 C19.07196594 195.57622864 18.70031311 196.45029358 18.31739807 197.35084534 C17.5927687 199.0518645 16.86518664 200.75162964 16.1342926 202.44996643 C15.80969055 203.21252747 15.4850885 203.9750885 15.15065002 204.76075745 C14.860047 205.43807922 14.56944397 206.115401 14.27003479 206.81324768 C13.53208329 208.52565749 13.53208329 208.52565749 13.64674377 210.5146637 C14.63674377 210.5146637 15.62674377 210.5146637 16.64674377 210.5146637 C17.03604065 209.5659137 17.42533752 208.6171637 17.82643127 207.6396637 C21.85484362 197.83445157 25.92607364 188.04771884 30.01441956 178.26734924 C32.36139234 172.64044834 34.66567939 167.00093904 36.89674377 161.3271637 C39.17001099 155.56303886 41.7198162 149.9798152 44.44752502 144.41700745 C45.6825872 141.42791561 46.24265277 138.71411366 46.64674377 135.5146637 C45.98674377 135.5146637 45.32674377 135.5146637 44.64674377 135.5146637 Z M50.64674377 150.5146637 C48.92334299 153.08808871 47.68312362 155.60266164 46.64674377 158.5146637 C46.29354065 159.44536682 45.94033752 160.37606995 45.57643127 161.3349762 C42.80505405 170.81355206 44.13166898 180.83285816 48.64674377 189.5146637 C53.36808715 197.42948867 59.88074292 202.59266341 68.64674377 205.5146637 C81.13038814 206.52615898 90.56543815 205.82956372 100.79127502 197.83888245 C107.23416656 191.9385502 110.7836476 184.17218222 111.64674377 175.5146637 C111.78145518 163.60018821 109.20216781 154.24137639 100.93580627 145.49513245 C93.24257365 138.8390421 84.98496581 137.11624796 75.09205627 137.2490387 C64.75091911 138.04631458 57.43949245 142.83645429 50.64674377 150.5146637 Z M5.64674377 138.5146637 C5.64674377 160.6246637 5.64674377 182.7346637 5.64674377 205.5146637 C6.63674377 205.5146637 7.62674377 205.5146637 8.64674377 205.5146637 C8.97674377 183.4046637 9.30674377 161.2946637 9.64674377 138.5146637 C8.32674377 138.5146637 7.00674377 138.5146637 5.64674377 138.5146637 Z M255.15968323 191.74684143 C250.10122267 197.31010307 244.246045 202.80717076 236.48268127 203.7881012 C225.1176172 204.25713559 218.24705013 197.49386766 209.67848206 190.90504456 C198.69330161 182.59687048 188.44195853 179.22041066 174.64674377 180.5146637 C162.16162919 184.35767945 154.64969149 196.76118181 148.64674377 207.5146637 C147.98674377 208.8346637 147.32674377 210.1546637 146.64674377 211.5146637 C195.15674377 211.5146637 243.66674377 211.5146637 293.64674377 211.5146637 C293.64674377 203.5946637 293.64674377 195.6746637 293.64674377 187.5146637 C284.42917891 179.07201939 284.42917891 179.07201939 272.66627502 177.0615387 C265.16793559 178.74395141 260.04033084 186.29100485 255.15968323 191.74684143 Z M3.64674377 263.5146637 C0.85435432 296.08086342 0.85435432 296.08086342 12.90065002 323.9052887 C17.8606481 328.47692003 24.21483986 330.68852876 30.89674377 330.5771637 C32.75299377 330.5462262 32.75299377 330.5462262 34.64674377 330.5146637 C32.70375997 329.03367827 30.766189 327.59227892 28.71705627 326.26075745 C21.65356193 321.50921005 17.24630274 314.59692885 14.64674377 306.5146637 C13.55331039 294.67761161 14.57856296 285.20184041 22.27174377 275.7021637 C28.33948959 269.29417045 35.68259367 265.94781426 44.44361877 265.3115387 C55.03635255 265.14340006 63.52269553 267.42902763 71.64674377 274.5146637 C78.98556458 283.54705853 81.3281213 291.96710775 80.64674377 303.5146637 C79.56238669 312.0036306 75.08430424 318.97536748 68.64674377 324.5146637 C66.53606614 325.90471818 64.40320387 327.22438386 62.22096252 328.4990387 C61.44172424 329.00177307 61.44172424 329.00177307 60.64674377 329.5146637 C60.64674377 329.8446637 60.64674377 330.1746637 60.64674377 330.5146637 C74.83674377 330.5146637 89.02674377 330.5146637 103.64674377 330.5146637 C102.32674377 329.5246637 101.00674377 328.5346637 99.64674377 327.5146637 C98.59954855 326.62529933 97.55738261 325.72995881 96.52174377 324.8271637 C94.0019423 322.30574415 94.0019423 322.30574415 91.64674377 322.5146637 C91.35799377 321.93329651 91.06924377 321.35192932 90.77174377 320.75294495 C90.07609436 319.36889247 89.36983358 317.99004868 88.64674377 316.62013245 C83.57163574 306.88623382 82.0887592 298.16983485 85.08424377 287.5146637 C88.21364931 278.98291599 93.80194805 272.69244047 101.83424377 268.4521637 C110.63512587 264.60685521 120.58257258 264.19171418 129.64674377 267.5146637 C137.37609102 270.82341373 143.21277217 275.50615679 146.93190002 283.15919495 C150.98400271 293.54361581 151.52717078 301.93168095 147.64674377 312.5146637 C144.06272792 319.59607266 138.96005889 325.49566513 131.70924377 328.8896637 C131.02861877 329.0959137 130.34799377 329.3021637 129.64674377 329.5146637 C129.64674377 329.8446637 129.64674377 330.1746637 129.64674377 330.5146637 C147.85811163 330.60825581 166.06941676 330.67871561 184.28097343 330.72191238 C192.73761426 330.74250576 201.19410534 330.77056438 209.65065002 330.81642151 C217.02450513 330.85638837 224.39825173 330.88211993 231.77221215 330.89101768 C235.67388416 330.89621584 239.57524588 330.90836533 243.47681808 330.93758392 C247.1556811 330.96490919 250.83410856 330.97307458 254.51306343 330.96709442 C256.4935985 330.96870466 258.47408707 330.99013737 260.45449829 331.01234436 C271.17227463 330.96323904 279.18143097 328.68305433 287.02565002 321.2334137 C300.21771435 307.2466467 293.64674377 276.68761591 293.64674377 263.5146637 C197.94674377 263.5146637 102.24674377 263.5146637 3.64674377 263.5146637 Z M26.02174377 284.5537262 C21.98583355 290.30948453 21.92581222 296.71202748 22.64674377 303.5146637 C24.20992113 310.32141064 27.14410864 314.67033938 32.45143127 319.1396637 C35.07041702 320.78002488 37.71175744 321.57755054 40.64674377 322.5146637 C40.65608948 321.68217102 40.66543518 320.84967834 40.67506409 319.99195862 C40.71910743 316.89964081 40.78073152 313.80831423 40.85426331 310.71656799 C40.89633026 308.72177238 40.91812242 306.72658288 40.93971252 304.73146057 C40.97193909 303.47784729 41.00416565 302.22423401 41.03736877 300.93263245 C41.06878967 299.19662781 41.06878967 299.19662781 41.10084534 297.42555237 C41.64674377 294.5146637 41.64674377 294.5146637 43.48951721 292.6018219 C46.53991482 291.06454026 48.42109257 291.60306662 51.64674377 292.5146637 C54.40113893 295.26905886 53.95663653 296.98069573 54.06080627 300.8349762 C54.09947815 302.09181213 54.13815002 303.34864807 54.17799377 304.64356995 C54.20893127 305.96228088 54.23986877 307.28099182 54.27174377 308.6396637 C54.30992406 309.97953288 54.34897583 311.31937753 54.38893127 312.65919495 C54.48346408 315.94420988 54.56901533 319.22921508 54.64674377 322.5146637 C62.17578558 320.08820632 66.62140009 316.85262632 70.58424377 309.8896637 C73.58857499 303.24220659 73.98678085 296.70596909 71.76002502 289.7412262 C68.53517771 282.60584975 64.1265551 278.60255049 57.52174377 274.6396637 C44.96499538 269.94502353 33.97651467 274.64709022 26.02174377 284.5537262 Z M97.70924377 281.5146637 C92.88453948 288.5324154 90.81988255 293.84042138 91.64674377 302.5146637 C93.21119656 310.72445265 97.60283987 316.59929112 104.33424377 321.4521637 C111.20298719 324.60807283 119.95028572 324.7323267 127.08424377 322.3271637 C130.79442545 320.43952741 132.95074214 318.65999893 135.64674377 315.5146637 C136.36861877 314.6896637 137.09049377 313.8646637 137.83424377 313.0146637 C141.28281669 308.25801141 141.92191683 304.35481274 141.89674377 298.5146637 C141.90190002 297.3184137 141.90705627 296.1221637 141.91236877 294.8896637 C141.65791579 291.65661396 141.03361499 289.42048911 139.64674377 286.5146637 C138.51475024 287.4226799 137.39142015 288.34150195 136.27174377 289.2646637 C135.6452594 289.77513245 135.01877502 290.2856012 134.37330627 290.8115387 C132.54091499 292.42953761 132.54091499 292.42953761 131.60768127 294.6552887 C130.64674377 296.5146637 130.64674377 296.5146637 127.64674377 297.5146637 C126.41281216 299.00837038 125.18010449 300.50318698 123.96315002 302.01075745 C122.05618574 304.18933682 120.32096786 305.40583907 117.64674377 306.5146637 C114.45924377 306.3896637 114.45924377 306.3896637 111.64674377 305.5146637 C109.60614514 302.45376574 109.14673514 301.14454451 109.78688049 297.56105042 C111.76579693 292.85143158 116.05533098 289.51499977 119.70924377 286.0771637 C120.56324768 285.2502301 121.41725159 284.42329651 122.2971344 283.57130432 C124.40075794 281.5381933 126.5170773 279.52041999 128.64674377 277.5146637 C125.05930175 273.76415613 122.8489168 273.29916428 117.64674377 273.1396637 C109.67759194 273.21018716 103.05668445 275.38970197 97.70924377 281.5146637 Z M-112.35325623 310.5146637 C-113.19197882 313.5310072 -113.59422218 316.42405859 -113.85325623 319.54200745 C-113.93575623 320.49913635 -114.01825623 321.45626526 -114.10325623 322.44239807 C-114.18575623 323.43562073 -114.26825623 324.42884338 -114.35325623 325.4521637 C-114.51733517 327.41982911 -114.68391921 329.38728757 -114.85325623 331.35450745 C-114.92544373 332.22454407 -114.99763123 333.09458069 -115.07200623 333.99098206 C-115.35632666 336.54221498 -115.83856085 339.00114883 -116.35325623 341.5146637 C-116.91643286 347.48433602 -115.75472586 351.65993459 -112.35325623 356.5146637 C-109.04548658 359.45490338 -107.19480628 360.42607948 -102.79075623 360.8896637 C-99.58048721 360.53945253 -97.24267271 359.9155929 -94.35325623 358.5146637 C-95.34325623 357.8546637 -96.33325623 357.1946637 -97.35325623 356.5146637 C-99.0398808 354.86819685 -100.70837329 353.20283303 -102.35325623 351.5146637 C-102.68325623 351.1846637 -103.01325623 350.8546637 -103.35325623 350.5146637 C-103.97605842 343.35243844 -103.20039992 337.16551715 -101.08763123 330.33888245 C-99.8229964 325.47541978 -99.60649105 320.51823446 -99.35325623 315.5146637 C-101.33152309 314.67919654 -103.31089446 313.84634425 -105.29075623 313.0146637 C-106.39290466 312.5506012 -107.4950531 312.0865387 -108.63059998 311.6084137 C-111.01888791 310.45253578 -111.01888791 310.45253578 -112.35325623 310.5146637 Z M355.64674377 310.5146637 C355.08986877 311.9996637 354.53299377 313.4846637 353.95924377 315.0146637 C352.56958218 318.54609765 351.04907502 321.58097679 348.89674377 324.7021637 C346.4800225 328.38691774 345.94835801 331.06245443 346.64674377 335.5146637 C347.73349372 337.60450601 347.73349372 337.60450601 349.64674377 338.5146637 C351.80973588 338.28708639 351.80973588 338.28708639 353.64674377 337.5146637 C353.48174377 336.4215387 353.31674377 335.3284137 353.14674377 334.2021637 C353.10072475 327.73649088 357.74955057 323.27236854 361.64674377 318.5146637 C362.39440002 317.58009338 363.14205627 316.64552307 363.91236877 315.68263245 C364.48471252 314.96720276 365.05705627 314.25177307 365.64674377 313.5146637 C362.34674377 312.5246637 359.04674377 311.5346637 355.64674377 310.5146637 Z M-59.35325623 310.5146637 C-61.99325623 311.5046637 -64.63325623 312.4946637 -67.35325623 313.5146637 C-65.23347019 317.40093809 -62.67996104 320.57725014 -59.75559998 323.8662262 C-56.81725315 327.32021605 -56.11268987 329.25285903 -56.22825623 333.7021637 C-56.2463031 334.60321838 -56.26434998 335.50427307 -56.28294373 336.43263245 C-56.31774841 337.46323792 -56.31774841 337.46323792 -56.35325623 338.5146637 C-53.41882221 338.24809798 -53.41882221 338.24809798 -50.35325623 337.5146637 C-48.07412441 334.73908567 -48.07412441 334.73908567 -48.48216248 331.80763245 C-49.55073454 327.76814252 -51.26152397 324.45823238 -53.29075623 320.8271637 C-53.65104919 320.16394104 -54.01134216 319.50071838 -54.3825531 318.81739807 C-55.94095478 315.96750329 -57.5506515 313.21857078 -59.35325623 310.5146637 Z M403.58424377 312.5146637 C402.47951721 312.8859137 401.37479065 313.2571637 400.23658752 313.6396637 C398.95461487 314.0727887 398.95461487 314.0727887 397.64674377 314.5146637 C396.42513592 318.85998023 396.95150454 322.02438568 397.95924377 326.3896637 C398.2402594 327.6271637 398.52127502 328.8646637 398.81080627 330.1396637 C399.41877427 332.59426346 400.06584507 334.98424166 400.83424377 337.3896637 C402.20415041 342.65853535 402.55633546 346.7628575 399.95924377 351.7646637 C397.71414206 354.43451438 395.46904482 356.47633517 392.64674377 358.5146637 C396.31104391 360.85981578 399.3685036 360.8834775 403.64674377 360.5146637 C407.78615623 358.92258198 410.41522425 357.39046076 412.64674377 353.5146637 C415.35243069 344.44148435 413.12374412 334.20088174 412.14674377 324.9521637 C412.00179482 323.54790987 411.85726032 322.14361321 411.71315002 320.73927307 C411.36174326 317.33062747 411.00616479 313.92247197 410.64674377 310.5146637 C408.30755323 310.5146637 405.75966544 311.78189008 403.58424377 312.5146637 Z M-90.35325623 316.5146637 C-91.16818294 320.22246801 -91.97976462 323.93099686 -92.79075623 327.6396637 C-93.02085388 328.68638245 -93.25095154 329.7331012 -93.48802185 330.8115387 C-96.13986876 339.47454934 -96.13986876 339.47454934 -95.16575623 347.8271637 C-93.16820716 349.68695076 -91.96655577 349.96819733 -89.35325623 350.5146637 C-89.18309998 349.33388245 -89.01294373 348.1531012 -88.83763123 346.9365387 C-88.593697 345.37911249 -88.34885773 343.82182785 -88.10325623 342.2646637 C-87.99368591 341.48735901 -87.8841156 340.71005432 -87.77122498 339.90919495 C-87.18336077 336.28918902 -86.71867699 334.00163656 -84.48606873 331.02638245 C-81.32172257 328.78352171 -78.14350395 328.32478616 -74.35325623 328.5146637 C-70.12248961 330.03135362 -67.72588621 331.69209317 -65.35325623 335.5146637 C-64.36325623 335.1846637 -63.37325623 334.8546637 -62.35325623 334.5146637 C-62.85435581 330.13004236 -64.33620738 327.71456399 -67.35325623 324.5146637 C-68.01325623 324.5146637 -68.67325623 324.5146637 -69.35325623 324.5146637 C-69.62138123 323.9371637 -69.88950623 323.3596637 -70.16575623 322.7646637 C-70.55763123 322.0221637 -70.94950623 321.2796637 -71.35325623 320.5146637 C-71.70388123 319.8134137 -72.05450623 319.1121637 -72.41575623 318.3896637 C-74.36292797 316.11875525 -74.36292797 316.11875525 -78.14622498 316.1240387 C-79.61157853 316.15056093 -81.07667173 316.19817252 -82.54075623 316.2646637 C-83.29034607 316.28271057 -84.03993591 316.30075745 -84.8122406 316.3193512 C-86.65979333 316.3664226 -88.50668781 316.43816604 -90.35325623 316.5146637 Z M362.64674377 327.5146637 C360.81593699 330.62093616 360.81593699 330.62093616 359.64674377 333.5146637 C359.97674377 334.1746637 360.30674377 334.8346637 360.64674377 335.5146637 C362.80500014 334.54716946 364.43680467 333.73373058 366.08424377 332.0146637 C369.19040287 329.03275097 371.8949151 328.50123818 376.14674377 328.5771637 C380.32695935 329.6968643 381.94930388 331.18253206 384.64674377 334.5146637 C386.0097418 338.60365777 386.02628286 342.61116579 386.26783752 346.8974762 C386.39287659 347.76114807 386.51791565 348.62481995 386.64674377 349.5146637 C388.60588625 350.77206612 388.60588625 350.77206612 390.70924377 349.9521637 C392.89999082 348.6328484 392.89999082 348.6328484 393.38111877 345.90919495 C393.69497044 341.89835525 392.91796433 338.58052967 391.83424377 334.7646637 C391.45611912 333.35369253 391.07981515 331.94223218 390.70533752 330.5302887 C390.52212952 329.8477301 390.33892151 329.16517151 390.15016174 328.46192932 C389.13066381 324.51842033 388.37847131 320.51990917 387.64674377 316.5146637 C375.3338293 314.88935899 369.74211217 316.64455932 362.64674377 327.5146637 Z M16.64674377 350.5146637 C16.54875519 366.56029446 16.85399127 382.59721953 17.14674377 398.6396637 C17.19524616 401.35189753 17.24326623 404.06413984 17.29127502 406.77638245 C17.40809899 413.35584018 17.52670251 419.93526391 17.64674377 426.5146637 C19.95674377 426.5146637 22.26674377 426.5146637 24.64674377 426.5146637 C24.64674377 401.4346637 24.64674377 376.3546637 24.64674377 350.5146637 C22.00674377 350.5146637 19.36674377 350.5146637 16.64674377 350.5146637 Z M69.64674377 350.5146637 C69.64674377 365.0346637 69.64674377 379.5546637 69.64674377 394.5146637 C70.63674377 394.5146637 71.62674377 394.5146637 72.64674377 394.5146637 C72.64674377 400.1246637 72.64674377 405.7346637 72.64674377 411.5146637 C71.65674377 411.5146637 70.66674377 411.5146637 69.64674377 411.5146637 C69.64674377 416.4646637 69.64674377 421.4146637 69.64674377 426.5146637 C72.28674377 426.5146637 74.92674377 426.5146637 77.64674377 426.5146637 C77.64674377 401.4346637 77.64674377 376.3546637 77.64674377 350.5146637 C75.00674377 350.5146637 72.36674377 350.5146637 69.64674377 350.5146637 Z M219.64674377 350.5146637 C219.64674377 375.5946637 219.64674377 400.6746637 219.64674377 426.5146637 C222.28674377 426.5146637 224.92674377 426.5146637 227.64674377 426.5146637 C227.64674377 421.5646637 227.64674377 416.6146637 227.64674377 411.5146637 C226.32674377 411.5146637 225.00674377 411.5146637 223.64674377 411.5146637 C223.97674377 406.2346637 224.30674377 400.9546637 224.64674377 395.5146637 C226.13174377 395.0196637 226.13174377 395.0196637 227.64674377 394.5146637 C227.64674377 379.9946637 227.64674377 365.4746637 227.64674377 350.5146637 C225.00674377 350.5146637 222.36674377 350.5146637 219.64674377 350.5146637 Z M272.64674377 350.5146637 C272.97674377 375.5946637 273.30674377 400.6746637 273.64674377 426.5146637 C275.62674377 426.5146637 277.60674377 426.5146637 279.64674377 426.5146637 C279.64674377 401.4346637 279.64674377 376.3546637 279.64674377 350.5146637 C277.33674377 350.5146637 275.02674377 350.5146637 272.64674377 350.5146637 Z M-14.35325623 440.5146637 C-14.94275055 440.90639267 -15.53224487 441.29812164 -16.13960266 441.70172119 C-20.37844241 444.87138512 -21.5334511 447.58000473 -24.35325623 452.5146637 C2.37674377 452.5146637 29.10674377 452.5146637 56.64674377 452.5146637 C58.29674377 448.5546637 59.94674377 444.5946637 61.64674377 440.5146637 C62.63674377 438.8646637 63.62674377 437.2146637 64.64674377 435.5146637 C55.82307962 435.39834212 46.99968312 435.30973352 38.17541695 435.25560284 C34.07704024 435.22961055 29.97919163 435.19440548 25.88111877 435.13746643 C21.91938531 435.08277194 17.95815682 435.05316536 13.99607468 435.04027748 C12.49149003 435.03110412 10.98693015 435.01319177 9.48256302 434.98601341 C0.47701795 434.82992317 -6.68631676 435.37546384 -14.35325623 440.5146637 Z M232.64674377 435.5146637 C233.14045471 436.49048401 233.63416565 437.46630432 234.14283752 438.47169495 C234.79007908 439.75679774 235.43720865 441.04195695 236.08424377 442.3271637 C236.40973206 442.96976135 236.73522034 443.61235901 237.0705719 444.27442932 C238.43907053 446.99731836 239.68157642 449.61916163 240.64674377 452.5146637 C267.04674377 452.5146637 293.44674377 452.5146637 320.64674377 452.5146637 C318.19349759 447.60817133 317.21817624 445.67425751 313.39674377 442.3271637 C312.66971252 441.67360901 311.94268127 441.02005432 311.19361877 440.34669495 C305.75285468 436.43301648 301.17499307 435.13744398 294.51808167 435.17408752 C293.84406311 435.17364944 293.17004456 435.17321136 292.4756012 435.17276001 C290.27322746 435.17483087 288.07163884 435.19807915 285.86940002 435.22169495 C284.33241186 435.22729701 282.79541831 435.23156422 281.25842285 435.23455811 C277.23223324 435.24595896 273.20637333 435.27538443 269.18031311 435.30867004 C265.06435098 435.33947419 260.94833507 435.35308545 256.83229065 435.36817932 C248.77029115 435.40025932 240.70855859 435.45139721 232.64674377 435.5146637 Z M74.64674377 438.5146637 C69.30552074 444.14855649 64.899418 448.88230285 64.45924377 456.9521637 C64.52111877 457.7977887 64.58299377 458.6434137 64.64674377 459.5146637 C71.3621355 458.21491046 77.3669349 456.21537482 83.64674377 453.5146637 C83.26868602 445.9580382 83.26868602 445.9580382 79.64674377 439.5146637 C77.08694754 438.8650209 77.08694754 438.8650209 74.64674377 438.5146637 Z M217.02174377 439.7021637 C213.65922639 444.13457297 213.43226371 448.04542214 213.64674377 453.5146637 C222.83005477 457.67586993 222.83005477 457.67586993 232.64674377 459.5146637 C232.09835539 451.83722637 230.09898775 446.45735647 225.14674377 440.5146637 C222.29892201 438.23640629 220.20785736 437.37384992 217.02174377 439.7021637 Z M-26.35325623 458.5146637 C-26.35325623 459.5046637 -26.35325623 460.4946637 -26.35325623 461.5146637 C0.70674377 461.5146637 27.76674377 461.5146637 55.64674377 461.5146637 C55.64674377 460.5246637 55.64674377 459.5346637 55.64674377 458.5146637 C28.58674377 458.5146637 1.52674377 458.5146637 -26.35325623 458.5146637 Z M241.64674377 458.5146637 C241.64674377 459.5046637 241.64674377 460.4946637 241.64674377 461.5146637 C268.70674377 461.5146637 295.76674377 461.5146637 323.64674377 461.5146637 C323.64674377 460.5246637 323.64674377 459.5346637 323.64674377 458.5146637 C296.58674377 458.5146637 269.52674377 458.5146637 241.64674377 458.5146637 Z " fill="#E95805" transform="translate(271.35325622558594,149.48533630371094)"/>
<path d="M0 0 C0.98840726 -0.0116255 1.97681452 -0.023251 2.99517351 -0.03522879 C6.30524814 -0.06547796 9.61310676 -0.04572227 12.92323303 -0.02601624 C15.29698185 -0.03713926 17.67071837 -0.05122532 20.04443359 -0.0680542 C25.82140788 -0.10050059 31.59768255 -0.10003469 37.37471025 -0.08319073 C42.07088368 -0.07010683 46.76688011 -0.07033936 51.46306038 -0.08003426 C52.46626551 -0.08207629 52.46626551 -0.08207629 53.48973741 -0.08415957 C54.84848214 -0.08697 56.20722682 -0.0898052 57.56597144 -0.0926649 C70.30319571 -0.11779019 83.04007468 -0.09925182 95.77726234 -0.06627823 C106.70049188 -0.03909659 117.62310108 -0.05154265 128.54627991 -0.09242249 C141.23686792 -0.13990985 153.92707348 -0.16111473 166.61774832 -0.14178568 C167.97175406 -0.13980753 169.32575985 -0.1378698 170.6797657 -0.13597298 C171.34592547 -0.13503376 172.01208525 -0.13409454 172.69843168 -0.13312687 C177.38712787 -0.12837687 182.07554733 -0.1425335 186.76418877 -0.16418266 C193.07896606 -0.19118787 199.39249412 -0.17925916 205.70717812 -0.13730049 C208.02470083 -0.12831992 210.34232239 -0.13296993 212.65978241 -0.15223694 C215.82450611 -0.17634829 218.98515282 -0.15116302 222.1496582 -0.11352539 C223.06678508 -0.13205328 223.98391196 -0.15058118 224.92883056 -0.16967052 C228.76243348 -0.07870633 231.18830313 0.13844794 234.24247122 2.57262796 C241.31775751 10.32217688 242.59717922 18.7852429 242.52650452 28.97593689 C242.53438995 30.40484756 242.53438995 30.40484756 242.54243469 31.86262512 C242.55552776 34.97926227 242.54693535 38.09537947 242.53675842 41.21202087 C242.53878206 43.39577329 242.54169591 45.57952503 242.54545593 47.76327515 C242.54986467 52.32657849 242.54349435 56.88970497 242.5294342 61.45298767 C242.51233319 67.28565562 242.52219877 73.11790964 242.5401516 78.95056248 C242.55101993 83.45543507 242.54752926 87.96021038 242.53976822 92.46508598 C242.53777518 94.61515795 242.54019381 96.76523892 242.54720688 98.91530037 C242.55487274 101.92533214 242.54314571 104.93470394 242.52650452 107.94468689 C242.53257721 108.82234207 242.5386499 109.69999725 242.54490662 110.60424805 C242.44206496 120.70574707 239.51610484 127.43531781 232.54457092 134.72373962 C225.11848919 141.42650171 217.22884838 142.04830188 207.49821472 142.02932739 C206.6411867 142.03159295 205.78415869 142.03385851 204.90116012 142.03619272 C202.03635227 142.04251058 199.17159199 142.04170477 196.30677795 142.0408783 C194.24993326 142.04387115 192.19308912 142.04727397 190.13624573 142.05105591 C184.55359428 142.05988679 178.97095817 142.06223363 173.38830042 142.06287169 C169.89964673 142.06358266 166.41099693 142.06571785 162.92234421 142.06836891 C150.7493795 142.07761896 138.57642575 142.08170418 126.40345764 142.08091736 C115.05976825 142.08031649 103.7161264 142.090871 92.37244904 142.10666102 C82.62960624 142.11973907 72.88677897 142.12510115 63.14392745 142.12446195 C57.3265725 142.12420706 51.50925981 142.12705329 45.6919136 142.13764 C40.22049091 142.14732551 34.74915084 142.147397 29.27772522 142.14012337 C27.27183283 142.13907813 25.26593528 142.1414368 23.26005173 142.14748383 C20.51740243 142.15521522 17.7750377 142.15055132 15.03239441 142.14285278 C14.24269072 142.14799635 13.45298702 142.15313991 12.63935292 142.15843934 C3.28721013 142.10061198 -4.69041387 139.786721 -11.59214783 133.25889587 C-18.7824085 125.35848599 -20.00679945 116.93451196 -20.03868103 106.59825134 C-20.04525223 105.66909409 -20.05182343 104.73993683 -20.05859375 103.78262329 C-20.07827188 100.71351532 -20.08997825 97.64445621 -20.09996033 94.57530212 C-20.10403585 93.5234586 -20.10811138 92.47161507 -20.11231041 91.38789749 C-20.13314955 85.81853178 -20.14745961 80.24919054 -20.15684509 74.67979431 C-20.16789423 68.94691631 -20.20228339 63.21442806 -20.24201679 57.48168755 C-20.26824757 53.05652681 -20.27654276 48.63145798 -20.28012657 44.20622635 C-20.28497719 42.09406533 -20.29654729 39.98190799 -20.31516457 37.86982346 C-20.52499485 12.48372145 -20.52499485 12.48372145 -11.75117749 2.43228984 C-8.21811164 -0.44105194 -4.38405666 -0.07120931 0 0 Z M-6.53662968 9.64240265 C-10.36797539 14.85248181 -10.57144017 19.9701888 -10.49278259 26.25547791 C-10.4999379 27.2613797 -10.5070932 28.26728149 -10.51446533 29.30366516 C-10.53128964 32.60822308 -10.51198823 35.91141262 -10.49058533 39.21592712 C-10.49141447 41.52182629 -10.49387554 43.8277254 -10.49789429 46.13362122 C-10.50074784 50.956974 -10.48609125 55.77986128 -10.45860291 60.60313416 C-10.42448323 66.78154449 -10.43055564 72.9591248 -10.44926548 79.13757515 C-10.45983836 83.89543056 -10.45089552 88.65309315 -10.43588066 93.41093063 C-10.43070314 95.68907473 -10.43117542 97.96723899 -10.43742561 100.2453804 C-10.4428826 103.42887387 -10.4224872 106.61118204 -10.39512634 109.79454041 C-10.40165222 110.7328772 -10.4081781 111.67121399 -10.41490173 112.63798523 C-10.31766798 119.29951693 -8.95930701 122.63161793 -4.33433533 127.50498962 C1.60203725 132.30670927 6.21234965 133.19198346 13.72737122 133.16304016 C14.59100635 133.16757127 15.45464148 133.17210239 16.34444737 133.17677081 C19.23770705 133.1894287 22.13077881 133.18779353 25.02406311 133.18614197 C27.09884381 133.1921264 29.17362229 133.19893175 31.24839783 133.20649719 C36.88490181 133.22417443 42.52134508 133.22885334 48.15787411 133.23012877 C51.68020446 133.23155011 55.20251937 133.23581942 58.72484589 133.2411232 C71.01567566 133.25963018 83.30646205 133.2677931 95.5973053 133.26622009 C107.04950793 133.26501897 118.50152201 133.28611388 129.95367694 133.31770742 C139.78909019 133.34387268 149.62444187 133.35458726 159.45988965 133.35330927 C165.33267419 133.35279965 171.20529124 133.35848284 177.07804108 133.37966537 C182.60370346 133.39905143 188.12903865 133.39916949 193.65471268 133.38463211 C195.67953851 133.38254329 197.70438483 133.38724925 199.72917557 133.39935303 C202.50027789 133.41484134 205.27025708 133.40547369 208.04133606 133.39009094 C208.83659093 133.40037807 209.63184579 133.41066519 210.45119929 133.42126405 C216.77528611 133.34405026 222.89460778 131.76327926 227.73535419 127.48372781 C233.04200846 121.44411376 233.43907468 115.95676472 233.44471741 108.29112244 C233.45720268 106.84867661 233.45720268 106.84867661 233.46994019 105.37709045 C233.49401661 102.20093218 233.50281004 99.02497945 233.50941467 95.84873962 C233.51838367 93.63542114 233.52750556 91.42210327 233.53677368 89.20878601 C233.55326045 84.56857328 233.56096309 79.92843267 233.56385803 75.28819275 C233.56923758 69.35546329 233.60690204 63.42341607 233.6526022 57.49087906 C233.68241353 52.91823379 233.68958251 48.34575187 233.69058418 43.77301788 C233.69477931 41.58663055 233.70718504 39.40024241 233.72810173 37.21395111 C233.75509617 34.14802595 233.75016584 31.08367008 233.73768616 28.01768494 C233.75252045 27.12282379 233.76735474 26.22796265 233.78263855 25.3059845 C233.7081601 18.84829185 232.01513138 14.09678716 228.13832092 8.89561462 C222.083932 3.21059053 216.64265831 2.74663176 208.67625427 2.74171448 C207.81417913 2.73733222 206.95210399 2.73294997 206.06390536 2.72843492 C203.16992577 2.71506093 200.27597663 2.70887118 197.38197327 2.70274353 C195.30896365 2.69484143 193.23595541 2.68657242 191.16294861 2.67796326 C184.35006522 2.65175465 177.53717573 2.63643633 170.72425842 2.62217712 C168.37804282 2.61681689 166.03182725 2.61143937 163.68561172 2.60604477 C153.925018 2.58441737 144.16442593 2.56568118 134.40381432 2.55442238 C120.42080274 2.53818643 106.43806918 2.5050153 92.45516241 2.44802153 C82.62061191 2.40930454 72.78613573 2.38978756 62.95151103 2.38450181 C57.07917965 2.38085069 51.20714488 2.36885433 45.33489609 2.33639908 C39.80757045 2.30628802 34.28072043 2.30001772 28.75333023 2.31178284 C26.72891211 2.31200332 24.70447172 2.30371955 22.68013 2.286129 C6.70893291 1.76356657 6.70893291 1.76356657 -6.53662968 9.64240265 Z " fill="#E95805" transform="translate(308.86167907714844,-0.8956146240234375)"/>
<path d="M0 0 C7.43146902 4.79996099 12.89685592 11.88320118 14.875 20.5625 C16.64380694 29.52273369 15.83442502 37.28087542 11.875 45.5625 C6.53885124 53.33653633 0.75628737 57.60207088 -8.125 60.5625 C-18.75065459 61.46023536 -26.09157452 60.05338815 -34.375 53.3125 C-41.34836043 46.75587425 -44.40786712 40.1329643 -45.125 30.5625 C-45.11059541 19.9895339 -42.77358302 12.31183391 -35.3984375 4.6171875 C-25.85380801 -4.0090584 -11.61246859 -5.73415691 0 0 Z " fill="#E95805" transform="translate(364.125,292.4375)"/>
<path d="M0 0 C0 24.42 0 48.84 0 74 C-13.772084 72.74799236 -21.90714293 70.32923523 -31 60 C-37.62580713 50.05456942 -39.2826097 40.77182002 -38 29 C-35.16294875 17.80446143 -28.73433973 10.38067441 -19.2109375 4.2265625 C-12.84130136 0.69287743 -7.26364746 0 0 0 Z " fill="#E95805" transform="translate(282,44)"/>
<path d="M0 0 C11.65670135 0.97139178 17.23777011 2.13411698 25.8125 9.375 C26.534375 10.24125 27.25625 11.1075 28 12 C28.48984375 12.53882813 28.9796875 13.07765625 29.484375 13.6328125 C35.42266349 20.65880729 38.89338689 30.42908434 38.3828125 39.6875 C36.45000034 51.36326327 31.20920078 59.95507615 22.1953125 67.4609375 C15.03394175 72.48154262 8.79884067 73.12011593 0 74 C0 49.58 0 25.16 0 0 Z " fill="#E95805" transform="translate(559,44)"/>
<path d="M0 0 C6.43262718 3.59326358 11.52792302 8.88064405 13.87890625 15.93359375 C15.08396257 33.69335817 15.08396257 33.69335817 9.87890625 39.93359375 C3.68941729 46.53929564 -2.25849911 50.0145906 -11.43359375 50.43359375 C-18.82575359 50.23816883 -24.42395091 48.23125718 -29.96484375 43.2890625 C-36.48919262 36.20502684 -37.70581378 29.78674841 -37.46484375 20.30859375 C-36.71539405 12.95036029 -33.21576095 8.58253899 -28.09765625 3.4765625 C-20.31924582 -2.59551679 -9.21798096 -3.14957297 0 0 Z " fill="#E95805" transform="translate(378.12109375,54.06640625)"/>
<path d="M0 0 C1.98741919 1.21072663 3.64211409 2.48008108 5.3515625 4.0546875 C6.2590625 4.8178125 7.1665625 5.5809375 8.1015625 6.3671875 C13.4550946 12.76168417 16.02495122 19.70466739 15.3515625 28.0546875 C13.18930448 36.03941139 9.27678838 43.0329718 2.09765625 47.4375 C-5.1161323 50.74912685 -12.74111648 51.51078275 -20.38671875 49.2421875 C-27.95169291 45.93609864 -32.38399493 40.48511862 -36.0859375 33.2421875 C-37.58859825 24.72710991 -37.74869086 16.36595495 -32.6484375 9.0546875 C-24.00623401 -0.28082709 -12.49972816 -4.46155489 0 0 Z " fill="#E95805" transform="translate(484.6484375,53.9453125)"/>
<path d="M0 0 C9.95745169 6.00541225 16.59831142 13.94256441 20.08984375 25.03125 C22.52735593 35.09992776 21.07943629 44.87590184 16.02734375 53.84375 C10.24415023 63.09685964 3.1581038 67.82425848 -6.8125 71.8125 C-19.66206422 74.29951243 -30.17161062 72.17013373 -41 64.875 C-48.71899769 58.57115188 -53.23491339 50.364188 -54.6875 40.5625 C-55.75354907 27.99513285 -53.10338924 18.45519239 -45.16015625 8.68359375 C-34.30250872 -3.14485521 -14.61410647 -6.85272868 0 0 Z M-40.6875 17.5625 C-45.44538537 23.91347508 -46.54250507 30.1661207 -46.234375 38.0234375 C-45.01277373 45.92894288 -41.23935583 53.5340809 -34.7265625 58.3828125 C-25.93240465 63.4706203 -17.06668421 65.15545771 -7.1875 62.625 C-0.2524869 60.01359187 5.96521076 54.28060648 9.9375 48.0625 C13.01277162 40.68480509 12.69494433 30.73425781 10.20703125 23.2265625 C5.91760228 14.83170151 0.14167995 9.66906331 -8.6875 6.5625 C-21.67797161 2.99012031 -32.11958479 7.82692201 -40.6875 17.5625 Z " fill="#E95805" transform="translate(490.6875,43.4375)"/>
<path d="M0 0 C1.73969403 1.05406427 3.45428281 2.15220225 5.125 3.3125 C6.218125 4.034375 7.31125 4.75625 8.4375 5.5 C17.41220169 14.89212968 20.60849626 24.3129417 20.62915039 36.98364258 C20.37597819 47.24746039 16.03095596 55.22187743 9.03515625 62.6328125 C5.71349215 65.55370323 2.14581359 67.51030172 -1.875 69.3125 C-2.56207031 69.6321875 -3.24914062 69.951875 -3.95703125 70.28125 C-12.75512222 73.80701558 -22.48118147 73.62407869 -31.25 70.1875 C-41.53377714 65.30544091 -48.71702163 58.88416634 -53.25 48.3125 C-56.38627178 38.82461898 -56.41051431 27.22463947 -52.45703125 17.9765625 C-41.84889359 0.11298255 -19.71597632 -9.6963818 0 0 Z M-37.875 13.3125 C-44.65646596 21.78541706 -46.96798253 29.47831067 -45.875 40.3125 C-43.95919287 47.9866138 -40.25683004 54.64318898 -33.40625 58.81640625 C-24.89817187 63.20807599 -16.83673992 64.87908392 -7.375 62.375 C-0.12092133 59.63056171 6.27494612 53.83611535 9.6875 46.875 C13.23387164 37.05036277 12.2851967 28.88220172 8.125 19.3125 C3.52236593 11.9121864 -3.16000365 8.09566592 -11.43359375 5.8515625 C-20.68573817 3.80868901 -31.08576419 6.58966259 -37.875 13.3125 Z " fill="#E85705" transform="translate(383.875,43.6875)"/>
<path d="M0 0 C1.11514732 -0.00503792 1.11514732 -0.00503792 2.25282288 -0.01017761 C4.7123481 -0.01968235 7.1718052 -0.02163053 9.63134766 -0.02270508 C11.34144112 -0.02591814 13.05153431 -0.02928225 14.7616272 -0.03279114 C18.34776446 -0.03878131 21.93387762 -0.04063117 25.52001953 -0.04003906 C30.11225342 -0.03993748 34.70433255 -0.05358612 39.29652977 -0.07081127 C42.82930204 -0.08193756 46.36203698 -0.08395807 49.89482498 -0.08342934 C51.58767861 -0.08460864 53.28053323 -0.08902764 54.9733696 -0.0967617 C57.34303324 -0.10657368 59.71236206 -0.10367879 62.08203125 -0.09765625 C63.12800728 -0.10608551 63.12800728 -0.10608551 64.19511414 -0.11468506 C68.30633225 -0.08817257 72.59742962 0.07228314 75.67041016 3.14526367 C76.23422502 8.87738148 76.23422502 8.87738148 75.67041016 11.14526367 C72.3393923 14.55804378 69.86203333 15.60636746 65.09040833 15.68737793 C64.37753159 15.67928101 63.66465485 15.67118408 62.93017578 15.6628418 C62.16694504 15.66985107 61.40371429 15.67686035 60.61735535 15.68408203 C58.10341627 15.70163608 55.59060997 15.69004922 53.07666016 15.67651367 C51.32458277 15.67920935 49.57250684 15.6830924 47.82043457 15.68811035 C44.15195444 15.69400186 40.48386441 15.6854538 36.81542969 15.66674805 C32.11762693 15.64395849 27.42073829 15.65708346 22.72296906 15.6810379 C19.10607032 15.69550538 15.48938761 15.69088558 11.8724823 15.68052673 C10.14055777 15.67786206 8.40861351 15.68112009 6.67671204 15.69044495 C4.25416252 15.7006265 1.83308467 15.68508875 -0.58935547 15.6628418 C-1.65867058 15.67498718 -1.65867058 15.67498718 -2.74958801 15.68737793 C-6.26437453 15.62770549 -8.26072537 15.18747295 -11.28210449 13.33557129 C-13.32958984 11.14526367 -13.32958984 11.14526367 -13.82958984 7.58276367 C-13.32958984 4.14526367 -13.32958984 4.14526367 -12.01708984 2.27026367 C-8.22612595 -0.25704559 -4.3676436 -0.00282214 0 0 Z " fill="#E95805" transform="translate(469.32958984375,421.854736328125)"/>
<path d="M0 0 C0.78419815 -0.00700928 1.5683963 -0.01401855 2.37635803 -0.02124023 C4.96545955 -0.03882832 7.55346573 -0.02719518 10.14257812 -0.01367188 C11.94332082 -0.01636657 13.74406209 -0.0202488 15.5447998 -0.02526855 C19.31760521 -0.03116468 23.09003164 -0.02259707 26.86279297 -0.00390625 C31.69859736 0.01888351 36.53351377 0.00576102 41.36928558 -0.01819611 C45.08736867 -0.03265106 48.80524126 -0.02804952 52.52333069 -0.01768494 C54.30632126 -0.01501681 56.08933095 -0.01829045 57.87229919 -0.02760315 C60.36459969 -0.03776399 62.85546281 -0.02227559 65.34765625 0 C66.08440079 -0.00809692 66.82114532 -0.01619385 67.58021545 -0.02453613 C70.97739336 0.03170895 72.86641109 0.29159223 75.63562012 2.32727051 C77.86234285 5.49797807 77.6545022 7.74085327 77.17382812 11.51757812 C76.13426208 13.20716858 76.13426208 13.20716858 74.17382812 14.51757812 C71.4956547 14.81879928 69.04882755 14.93772004 66.36938477 14.92163086 C65.17867622 14.93192574 65.17867622 14.93192574 63.96391296 14.94242859 C61.33708869 14.96074591 58.71085888 14.95685209 56.08398438 14.95117188 C54.25939234 14.95573146 52.43480203 14.96103636 50.61021423 14.96705627 C46.78442411 14.97599716 42.95884262 14.97355334 39.13305664 14.96362305 C34.22887759 14.95213452 29.32541868 14.97233792 24.42133427 15.00154018 C20.65265829 15.01988202 16.8841555 15.01961373 13.11544609 15.01390266 C11.30732653 15.01374919 9.49919543 15.01981515 7.69111824 15.03219414 C5.16284079 15.04706387 2.63590144 15.03645747 0.10766602 15.01928711 C-0.64000031 15.02895508 -1.38766663 15.03862305 -2.1579895 15.04858398 C-5.60317666 14.99956174 -7.49741434 14.7635321 -10.29078674 12.67372131 C-12.38786397 9.72879323 -12.41602147 8.05667567 -11.82617188 4.51757812 C-8.59294572 -0.00095332 -5.19043292 -0.05704357 0 0 Z " fill="#E95805" transform="translate(467.826171875,440.482421875)"/>
<path d="M0 0 C0.67293091 -0.0038269 1.34586182 -0.00765381 2.03918457 -0.01159668 C3.4579417 -0.0143113 4.87674927 -0.00698134 6.29541016 0.00976562 C8.46240203 0.03118725 10.62607951 0.00995462 12.79296875 -0.015625 C14.17448646 -0.01298164 15.5560021 -0.00785647 16.9375 0 C18.18982422 0.00451172 19.44214844 0.00902344 20.73242188 0.01367188 C24.5187942 0.61921724 25.71788498 1.4774934 27.96875 4.53125 C28.47222322 7.98363782 28.38431154 9.79907014 26.65625 12.84375 C22.30508222 17.19491778 14.79636642 15.7156675 9.09375 15.71875 C7.31677734 15.73711914 7.31677734 15.73711914 5.50390625 15.75585938 C4.36050781 15.75779297 3.21710938 15.75972656 2.0390625 15.76171875 C0.47309326 15.76788208 0.47309326 15.76788208 -1.12451172 15.77416992 C-4.18905566 15.51806197 -6.31003783 14.95280083 -9.03125 13.53125 C-11.35874345 10.04000983 -11.53424316 8.63902749 -11.03125 4.53125 C-7.84885736 0.19519097 -5.21812681 0.01879922 0 0 Z " fill="#E45605" transform="translate(467.03125,459.46875)"/>
<path d="M0 0 C1.093125 0.00257813 2.18625 0.00515625 3.3125 0.0078125 C4.405625 0.00523437 5.49875 0.00265625 6.625 0 C9.3125 0.1328125 9.3125 0.1328125 10.3125 1.1328125 C10.45643457 5.46812168 10.35462061 9.79438981 10.3125 14.1328125 C5.6925 14.1328125 1.0725 14.1328125 -3.6875 14.1328125 C-3.78515625 4.07421875 -3.78515625 4.07421875 -3.6875 1.1328125 C-2.6875 0.1328125 -2.6875 0.1328125 0 0 Z " fill="#E95805" transform="translate(344.6875,209.8671875)"/>
<path d="M0 0 C1.093125 0.00257813 2.18625 0.00515625 3.3125 0.0078125 C4.405625 0.00523437 5.49875 0.00265625 6.625 0 C9.3125 0.1328125 9.3125 0.1328125 10.3125 1.1328125 C10.45643457 5.46812168 10.35462061 9.79438981 10.3125 14.1328125 C5.6925 14.1328125 1.0725 14.1328125 -3.6875 14.1328125 C-3.78515625 4.07421875 -3.78515625 4.07421875 -3.6875 1.1328125 C-2.6875 0.1328125 -2.6875 0.1328125 0 0 Z " fill="#E95804" transform="translate(324.6875,209.8671875)"/>
<path d="M0 0 C1.093125 0.00257813 2.18625 0.00515625 3.3125 0.0078125 C4.405625 0.00523437 5.49875 0.00265625 6.625 0 C9.3125 0.1328125 9.3125 0.1328125 10.3125 1.1328125 C10.45643457 5.46812168 10.35462061 9.79438981 10.3125 14.1328125 C5.6925 14.1328125 1.0725 14.1328125 -3.6875 14.1328125 C-3.78515625 4.07421875 -3.78515625 4.07421875 -3.6875 1.1328125 C-2.6875 0.1328125 -2.6875 0.1328125 0 0 Z " fill="#E95805" transform="translate(285.6875,209.8671875)"/>
<path d="M0 0 C10.05859375 -0.09765625 10.05859375 -0.09765625 13 0 C14 1 14 1 14.1328125 3.43359375 C14.13023437 4.42488281 14.12765625 5.41617188 14.125 6.4375 C14.12757813 7.42621094 14.13015625 8.41492188 14.1328125 9.43359375 C14 12 14 12 13 14 C8.71 14 4.42 14 0 14 C0 9.38 0 4.76 0 0 Z " fill="#E25504" transform="translate(523,62)"/>
<path d="M0 0 C1.65322266 0.01740234 1.65322266 0.01740234 3.33984375 0.03515625 C4.99693359 0.04869141 4.99693359 0.04869141 6.6875 0.0625 C7.54214844 0.07410156 8.39679688 0.08570313 9.27734375 0.09765625 C10.58899217 2.72095309 10.40997221 4.7346425 10.40234375 7.66015625 C10.40492188 8.65144531 10.4075 9.64273438 10.41015625 10.6640625 C10.27734375 13.09765625 10.27734375 13.09765625 9.27734375 14.09765625 C7.09094922 14.17024571 4.90233986 14.18139408 2.71484375 14.16015625 C0.91853516 14.14662109 0.91853516 14.14662109 -0.9140625 14.1328125 C-1.84089844 14.12121094 -2.76773437 14.10960937 -3.72265625 14.09765625 C-3.74951563 11.95188988 -3.76898713 9.8060298 -3.78515625 7.66015625 C-3.79675781 6.46519531 -3.80835938 5.27023438 -3.8203125 4.0390625 C-3.69060839 0.13237476 -3.69060839 0.13237476 0 0 Z " fill="#E35505" transform="translate(305.72265625,209.90234375)"/>
<path d="M0 0 C10.05859375 -0.09765625 10.05859375 -0.09765625 13 0 C14 1 14 1 14.1328125 3.46875 C14.13023437 4.4690625 14.12765625 5.469375 14.125 6.5 C14.12757813 7.5003125 14.13015625 8.500625 14.1328125 9.53125 C14 12 14 12 13 13 C8.66469082 13.14393457 4.33842269 13.04212061 0 13 C0 8.71 0 4.42 0 0 Z " fill="#E35505" transform="translate(523,79)"/>
</svg>
